<svg width="500" height="500" viewBox="0 0 500 500" fill="none" xmlns="http://www.w3.org/2000/svg">
    <path
        d="M98.3466 278.604C14.5936 326.959 14.5956 405.358 98.3516 453.713C182.107 502.068 317.9 502.068 401.653 453.713C485.406 405.358 485.404 326.959 401.648 278.604C317.893 230.249 182.1 230.249 98.3466 278.604Z"
        fill="#F5F5F5" />
    <path
        d="M119.378 385.96L102.648 395.619C102.871 389.648 103.391 380.766 102.567 374.789C97.5147 338.222 83.2697 326.165 76.4957 308.368C69.3637 289.625 78.0627 283.594 89.3627 286.964C99.4397 289.97 114.023 304.883 118.615 332.17C121.667 350.325 121.127 370.04 119.378 385.96Z"
        fill="#1F2D7C" />
    <path opacity="0.65"
        d="M119.378 385.96L102.648 395.619C102.871 389.648 103.391 380.766 102.567 374.789C97.5147 338.222 83.2697 326.165 76.4957 308.368C69.3637 289.625 78.0627 283.594 89.3627 286.964C99.4397 289.97 114.023 304.883 118.615 332.17C121.667 350.325 121.127 370.04 119.378 385.96Z"
        fill="white" />
    <path
        d="M110.509 391.08L108.834 392.046C114.818 349.413 100.243 312.441 85.8557 297.169C85.5787 296.879 85.5927 296.412 85.8827 296.136C86.1867 295.859 86.6457 295.873 86.9227 296.163C101.303 311.441 115.872 348.663 110.509 391.08Z"
        fill="white" />
    <path
        d="M107.349 392.903L97.9335 398.34H97.9265C92.9215 383.602 87.7815 377.699 81.3985 368.007C75.5835 359.186 68.8225 353.722 65.2285 347.521C62.0475 342.03 59.6565 335.134 64.3845 330.96C71.9085 324.314 81.7295 331.345 88.4835 338.943C94.3195 345.516 106.059 362.996 107.349 392.903Z"
        fill="#1F2D7C" />
    <path opacity="0.3"
        d="M107.349 392.903L97.9335 398.34H97.9265C92.9215 383.602 87.7815 377.699 81.3985 368.007C75.5835 359.186 68.8225 353.722 65.2285 347.521C62.0475 342.03 59.6565 335.134 64.3845 330.96C71.9085 324.314 81.7295 331.345 88.4835 338.943C94.3195 345.516 106.059 362.996 107.349 392.903Z"
        fill="white" />
    <path
        d="M103.485 395.133L102.114 395.93C98.1629 372.621 82.3309 345.652 72.4899 339.282C72.1459 339.059 72.0439 338.593 72.2739 338.242C72.4969 337.891 72.9559 337.789 73.3069 338.019C83.4919 344.625 99.2899 371.466 103.485 395.133Z"
        fill="white" />
    <path
        d="M382.708 385.96L399.438 395.619C399.215 389.648 398.695 380.766 399.519 374.789C404.571 338.222 418.816 326.165 425.59 308.368C432.722 289.625 424.023 283.594 412.723 286.964C402.646 289.97 388.063 304.883 383.47 332.17C380.418 350.325 380.958 370.04 382.708 385.96Z"
        fill="#1F2D7C" />
    <path opacity="0.65"
        d="M382.708 385.96L399.438 395.619C399.215 389.648 398.695 380.766 399.519 374.789C404.571 338.222 418.816 326.165 425.59 308.368C432.722 289.625 424.023 283.594 412.723 286.964C402.646 289.97 388.063 304.883 383.47 332.17C380.418 350.325 380.958 370.04 382.708 385.96Z"
        fill="white" />
    <path
        d="M391.576 391.08L393.252 392.046C387.268 349.413 401.843 312.441 416.23 297.169C416.507 296.879 416.492 296.412 416.202 296.136C415.898 295.859 415.439 295.873 415.162 296.163C400.782 311.441 386.213 348.663 391.576 391.08Z"
        fill="white" />
    <path
        d="M394.736 392.903L404.151 398.34H404.158C409.163 383.602 414.303 377.699 420.686 368.007C426.501 359.186 433.262 353.722 436.856 347.521C440.037 342.03 442.428 335.134 437.7 330.96C430.176 324.314 420.355 331.345 413.601 338.943C407.765 345.516 396.026 362.996 394.736 392.903Z"
        fill="#1F2D7C" />
    <path opacity="0.3"
        d="M394.736 392.903L404.151 398.34H404.158C409.163 383.602 414.303 377.699 420.686 368.007C426.501 359.186 433.262 353.722 436.856 347.521C440.037 342.03 442.428 335.134 437.7 330.96C430.176 324.314 420.355 331.345 413.601 338.943C407.765 345.516 396.026 362.996 394.736 392.903Z"
        fill="white" />
    <path
        d="M398.6 395.133L399.971 395.93C403.922 372.621 419.754 345.652 429.595 339.282C429.939 339.059 430.041 338.593 429.811 338.242C429.588 337.891 429.129 337.789 428.778 338.019C418.593 344.625 402.795 371.466 398.6 395.133Z"
        fill="white" />
    <path
        d="M162.515 464.582C205.682 464.582 240.675 444.378 240.675 419.456C240.675 394.534 205.682 374.33 162.515 374.33C119.349 374.33 84.3555 394.534 84.3555 419.456C84.3555 444.378 119.349 464.582 162.515 464.582Z"
        fill="#E0E0E0" />
    <path
        d="M338.486 464.582C381.653 464.582 416.646 444.378 416.646 419.456C416.646 394.534 381.653 374.33 338.486 374.33C295.32 374.33 260.326 394.534 260.326 419.456C260.326 444.378 295.32 464.582 338.486 464.582Z"
        fill="#E0E0E0" />
    <path
        d="M433.809 259.862C433.111 259.862 432.407 259.734 431.712 259.48C430.936 259.194 430.248 258.78 429.667 258.249C429.085 257.716 428.633 257.105 428.322 256.435C428.011 255.76 427.836 255.027 427.802 254.253C427.768 253.479 427.895 252.69 428.181 251.913C428.457 251.158 428.867 250.481 429.398 249.902C429.931 249.321 430.541 248.868 431.213 248.557C431.884 248.247 432.622 248.068 433.41 248.027C434.209 247.983 435.001 248.108 435.78 248.395C436.557 248.681 437.241 249.1 437.81 249.643C438.371 250.18 438.817 250.791 439.137 251.461C439.459 252.138 439.644 252.881 439.687 253.669C439.729 254.462 439.609 255.248 439.331 256.006C439.045 256.786 438.625 257.469 438.082 258.036C437.545 258.599 436.927 259.04 436.242 259.346C435.559 259.652 434.822 259.824 434.052 259.857C433.972 259.861 433.891 259.862 433.809 259.862ZM433.712 249.169C433.632 249.169 433.552 249.171 433.472 249.175C432.831 249.209 432.235 249.352 431.699 249.601C431.166 249.848 430.677 250.21 430.249 250.679C429.82 251.147 429.488 251.696 429.263 252.309C429.031 252.943 428.927 253.58 428.955 254.203C428.981 254.826 429.121 255.414 429.369 255.951C429.615 256.482 429.977 256.971 430.446 257.399C430.916 257.829 431.476 258.166 432.11 258.399C432.741 258.629 433.373 258.736 434.006 258.707C434.63 258.68 435.226 258.542 435.775 258.296C436.322 258.051 436.819 257.695 437.254 257.241C437.687 256.788 438.024 256.239 438.255 255.609C438.479 254.999 438.575 254.367 438.541 253.73C438.507 253.093 438.358 252.496 438.102 251.956C437.842 251.414 437.477 250.915 437.018 250.475C436.558 250.037 436.025 249.709 435.387 249.476C434.832 249.272 434.271 249.169 433.712 249.169ZM440.312 247.037L433.745 244.627L435.298 238.499C435.57 237.307 436.121 236.337 436.933 235.63C437.699 234.963 438.601 234.416 439.617 234.005C440.594 233.609 441.663 233.261 442.795 232.971C443.88 232.693 444.938 232.338 445.94 231.918C446.923 231.506 447.829 230.96 448.63 230.294C449.398 229.655 449.999 228.754 450.416 227.617C450.678 226.902 450.78 226.21 450.721 225.56C450.662 224.902 450.468 224.279 450.145 223.704C449.819 223.124 449.354 222.593 448.762 222.124C448.161 221.649 447.449 221.258 446.647 220.963C445.446 220.522 444.373 220.277 443.458 220.236C442.522 220.192 441.698 220.229 441.009 220.342C440.288 220.459 439.672 220.577 439.159 220.697C438.521 220.847 437.994 220.841 437.548 220.678C436.553 220.312 435.953 219.589 435.814 218.586L434.815 213.931L435.272 213.753C436.285 213.359 437.376 213.02 438.518 212.745C439.658 212.471 440.865 212.299 442.105 212.235C443.342 212.172 444.651 212.241 445.993 212.438C447.34 212.636 448.756 213.006 450.202 213.537C452.181 214.264 453.91 215.214 455.34 216.361C456.782 217.518 457.92 218.845 458.72 220.304C459.526 221.773 459.992 223.38 460.104 225.079C460.216 226.775 459.939 228.546 459.28 230.343C458.637 232.091 457.814 233.534 456.833 234.631C455.861 235.719 454.806 236.61 453.697 237.277C452.596 237.938 451.451 238.453 450.292 238.809L447.127 239.779C446.166 240.071 445.301 240.395 444.555 240.74C443.89 241.048 443.414 241.471 443.101 242.036L440.312 247.037ZM435.116 243.903L439.785 245.617L442.091 241.475C442.521 240.701 443.186 240.102 444.067 239.694C444.862 239.326 445.777 238.984 446.788 238.676L449.951 237.707C451.02 237.378 452.081 236.901 453.101 236.288C454.11 235.681 455.076 234.865 455.971 233.862C456.856 232.873 457.604 231.554 458.196 229.944C458.799 228.3 459.053 226.688 458.952 225.153C458.85 223.622 458.431 222.176 457.707 220.855C456.98 219.529 455.94 218.318 454.616 217.256C453.284 216.187 451.664 215.299 449.802 214.615C448.43 214.111 447.091 213.761 445.822 213.575C444.554 213.39 443.321 213.323 442.161 213.383C440.992 213.443 439.856 213.604 438.785 213.862C437.864 214.084 436.978 214.349 436.145 214.652L436.944 218.384C437.032 219.005 437.347 219.377 437.942 219.595C438.166 219.677 438.487 219.67 438.894 219.574C439.429 219.45 440.071 219.325 440.821 219.203C441.589 219.078 442.492 219.038 443.509 219.083C444.54 219.13 445.729 219.398 447.041 219.879C447.96 220.216 448.778 220.667 449.475 221.218C450.184 221.779 450.746 222.425 451.147 223.136C451.55 223.853 451.793 224.633 451.866 225.452C451.942 226.272 451.817 227.134 451.495 228.01C451.008 229.34 450.291 230.405 449.365 231.175C448.475 231.914 447.472 232.52 446.384 232.975C445.332 233.417 444.221 233.789 443.08 234.081C441.998 234.358 440.978 234.689 440.05 235.066C439.152 235.43 438.359 235.91 437.69 236.493C437.066 237.036 436.638 237.801 436.419 238.764L435.116 243.903Z"
        fill="#E0E0E0" />
    <path
        d="M69.9477 262.817C68.1267 262.817 66.4177 262.52 64.8597 261.934C63.1357 261.286 61.5937 260.277 60.2797 258.936C58.9677 257.595 57.9297 255.915 57.1947 253.942C56.4767 252.02 56.1307 250.223 56.1647 248.601C56.1967 246.993 56.4407 245.491 56.8897 244.137C57.3357 242.795 57.9247 241.541 58.6397 240.411L60.5987 237.316C61.1997 236.371 61.6947 235.474 62.0717 234.649C62.4137 233.899 62.5087 233.189 62.3627 232.475L61.1087 226.319L68.2587 223.651L71.3457 229.865C71.9697 231.053 72.2027 232.252 72.0337 233.417C71.8717 234.524 71.5097 235.628 70.9577 236.696C70.4247 237.728 69.7787 238.789 69.0377 239.847C68.3247 240.865 67.6897 241.927 67.1497 243.004C66.6187 244.062 66.2507 245.178 66.0547 246.322C65.8677 247.421 66.0137 248.62 66.4867 249.888C66.7837 250.684 67.2007 251.347 67.7277 251.858C68.2567 252.374 68.8757 252.763 69.5697 253.015C70.2687 253.269 71.0527 253.38 71.8927 253.349C72.7457 253.316 73.6297 253.129 74.5247 252.796C75.8577 252.298 76.9397 251.728 77.7417 251.102C78.5637 250.459 79.2337 249.832 79.7327 249.239C80.2547 248.619 80.6917 248.069 81.0327 247.605C81.4527 247.029 81.8897 246.661 82.3717 246.482C83.4507 246.081 84.4527 246.252 85.2737 246.979L89.4277 250.139L89.1967 250.572C88.6307 251.631 87.9597 252.7 87.2017 253.75C86.4407 254.802 85.5537 255.811 84.5627 256.753C83.5717 257.694 82.4267 258.576 81.1617 259.376C79.8907 260.179 78.4377 260.887 76.8467 261.48C74.6687 262.293 72.5397 262.739 70.5177 262.806C70.3257 262.814 70.1347 262.817 69.9477 262.817ZM62.4317 227.054L63.4907 232.245C63.6827 233.192 63.5577 234.162 63.1177 235.126C62.7197 235.999 62.1987 236.944 61.5707 237.933L59.6117 241.026C58.9467 242.077 58.3987 243.246 57.9817 244.499C57.5697 245.743 57.3447 247.13 57.3147 248.623C57.2847 250.1 57.6067 251.753 58.2727 253.538C58.9527 255.359 59.9047 256.904 61.1017 258.129C62.2977 259.349 63.6987 260.266 65.2647 260.855C66.8417 261.45 68.5947 261.715 70.4767 261.656C72.3747 261.593 74.3817 261.171 76.4427 260.402C77.9607 259.836 79.3407 259.163 80.5457 258.403C81.7487 257.643 82.8327 256.808 83.7697 255.92C84.7087 255.027 85.5487 254.07 86.2677 253.077C86.8927 252.211 87.4557 251.332 87.9457 250.459L84.5437 247.869C84.0077 247.397 83.4547 247.307 82.7737 247.562C82.5137 247.659 82.2417 247.902 81.9607 248.286C81.6057 248.772 81.1507 249.342 80.6127 249.981C80.0617 250.634 79.3347 251.317 78.4497 252.009C77.5547 252.709 76.3707 253.336 74.9267 253.875C73.9177 254.252 72.9117 254.462 71.9377 254.5C70.9457 254.545 70.0157 254.403 69.1747 254.098C68.3277 253.789 67.5707 253.314 66.9247 252.684C66.2747 252.054 65.7647 251.248 65.4077 250.29C64.8617 248.83 64.6977 247.43 64.9197 246.128C65.1337 244.871 65.5377 243.646 66.1197 242.487C66.6837 241.36 67.3487 240.249 68.0937 239.186C68.8057 238.169 69.4247 237.154 69.9337 236.167C70.4277 235.212 70.7507 234.23 70.8947 233.25C71.0287 232.331 70.8347 231.368 70.3207 230.389L67.6887 225.092L62.4317 227.054ZM61.5857 222.239C61.4777 222.239 61.3697 222.236 61.2617 222.23C60.4127 222.184 59.6057 221.994 58.8607 221.665C58.1097 221.332 57.4247 220.846 56.8277 220.219C56.2257 219.59 55.7647 218.85 55.4567 218.021C55.1387 217.169 54.9997 216.301 55.0457 215.441C55.0927 214.586 55.2937 213.778 55.6427 213.038C55.9917 212.298 56.4817 211.629 57.0997 211.05C57.7227 210.467 58.4687 210.01 59.3187 209.693C60.1677 209.377 61.0287 209.221 61.8987 209.258C62.7617 209.285 63.5747 209.47 64.3127 209.807C65.0517 210.145 65.7207 210.631 66.2997 211.25C66.8817 211.871 67.3377 212.617 67.6547 213.468V213.469C67.9627 214.295 68.1047 215.15 68.0767 216.011C68.0497 216.873 67.8637 217.685 67.5267 218.424C67.1907 219.16 66.7037 219.837 66.0767 220.434C65.4477 221.035 64.6957 221.501 63.8427 221.82C63.0967 222.099 62.3387 222.239 61.5857 222.239ZM61.6917 210.407C61.0347 210.407 60.3727 210.53 59.7197 210.773C59.0137 211.036 58.3967 211.413 57.8857 211.891C57.3737 212.37 56.9697 212.921 56.6827 213.529C56.3977 214.134 56.2337 214.799 56.1957 215.504C56.1577 216.204 56.2717 216.916 56.5347 217.619C56.7887 218.301 57.1677 218.908 57.6597 219.424C58.1537 219.941 58.7147 220.341 59.3267 220.612C59.9427 220.885 60.6157 221.042 61.3247 221.081C62.0417 221.12 62.7267 221.008 63.4397 220.742C64.1457 220.478 64.7657 220.095 65.2817 219.602C65.8027 219.106 66.2047 218.549 66.4797 217.947C66.7527 217.348 66.9027 216.684 66.9257 215.975C66.9477 215.264 66.8307 214.556 66.5757 213.871C66.3107 213.164 65.9347 212.547 65.4587 212.038C64.9807 211.528 64.4347 211.13 63.8327 210.855C63.2337 210.582 62.5697 210.432 61.8597 210.409C61.8047 210.408 61.7477 210.407 61.6917 210.407Z"
        fill="#E0E0E0" />
    <path
        d="M434.603 123.265C434.141 123.265 433.685 123.222 433.237 123.138C432.277 122.956 431.403 122.608 430.637 122.103C429.872 121.599 429.21 120.94 428.669 120.146C428.127 119.351 427.747 118.438 427.541 117.432C427.341 116.454 427.33 115.474 427.512 114.518C427.694 113.559 428.041 112.685 428.546 111.919C429.048 111.157 429.712 110.487 430.516 109.927C431.324 109.365 432.243 108.976 433.253 108.769C434.257 108.562 435.251 108.559 436.205 108.76C437.145 108.96 438.016 109.313 438.791 109.81C439.572 110.313 440.251 110.975 440.81 111.779C441.373 112.588 441.759 113.494 441.96 114.472C442.167 115.482 442.169 116.476 441.967 117.426C441.767 118.368 441.403 119.236 440.885 120.004C440.364 120.77 439.7 121.432 438.909 121.971C438.111 122.514 437.197 122.894 436.194 123.1C435.661 123.21 435.128 123.265 434.603 123.265ZM428.669 117.2C428.845 118.056 429.164 118.829 429.62 119.497C430.076 120.167 430.633 120.721 431.27 121.142C431.908 121.562 432.641 121.853 433.451 122.006C434.262 122.158 435.107 122.147 435.964 121.972C436.818 121.797 437.59 121.476 438.261 121.019C438.932 120.562 439.493 120.003 439.931 119.358C440.366 118.714 440.671 117.983 440.84 117.186C441.009 116.392 441.006 115.557 440.831 114.703C440.662 113.879 440.338 113.116 439.865 112.436C439.392 111.756 438.821 111.199 438.169 110.779C437.512 110.358 436.77 110.057 435.967 109.886C435.16 109.717 434.349 109.719 433.485 109.896C432.63 110.071 431.852 110.399 431.174 110.872C430.49 111.348 429.93 111.913 429.508 112.552C429.088 113.19 428.798 113.923 428.645 114.731C428.492 115.54 428.499 116.371 428.669 117.2ZM428.628 105.748L426.259 98.2557C425.768 96.8207 425.715 95.4427 426.108 94.1727C426.482 92.9617 427.082 91.7877 427.889 90.6827C428.668 89.6157 429.582 88.5347 430.605 87.4717C431.59 86.4467 432.497 85.3547 433.3 84.2287C434.092 83.1187 434.708 81.9157 435.132 80.6517C435.54 79.4297 435.589 78.0347 435.275 76.5057C435.077 75.5407 434.717 74.7077 434.206 74.0297C433.69 73.3437 433.051 72.7877 432.303 72.3747C431.549 71.9587 430.676 71.6907 429.708 71.5787C428.728 71.4647 427.686 71.5197 426.612 71.7407C425.011 72.0697 423.68 72.5257 422.656 73.0967C421.611 73.6797 420.74 74.2727 420.066 74.8597C419.372 75.4637 418.78 76.0077 418.306 76.4797C417.742 77.0447 417.196 77.3757 416.638 77.4907C415.382 77.7457 414.307 77.3867 413.527 76.4467L409.438 72.1917L409.732 71.7997C410.552 70.7087 411.497 69.6217 412.538 68.5707C413.575 67.5227 414.751 66.5407 416.034 65.6527C417.318 64.7657 418.761 63.9737 420.324 63.2977C421.896 62.6177 423.655 62.0747 425.553 61.6867C428.147 61.1537 430.621 61.0257 432.908 61.3047C435.209 61.5857 437.296 62.2497 439.111 63.2777C440.935 64.3087 442.49 65.7117 443.73 67.4467C444.968 69.1817 445.84 71.2517 446.322 73.5987C446.792 75.8857 446.866 77.9657 446.544 79.7807C446.225 81.5867 445.687 83.2317 444.947 84.6717C444.209 86.1047 443.326 87.4107 442.326 88.5547L439.568 91.7037C438.727 92.6607 438.007 93.5897 437.428 94.4667C436.901 95.2667 436.663 96.0697 436.702 96.9197L437.033 104.023L428.628 105.748ZM428.698 70.3697C429.086 70.3697 429.466 70.3907 429.841 70.4347C430.958 70.5647 431.973 70.8777 432.86 71.3667C433.751 71.8577 434.514 72.5207 435.128 73.3367C435.743 74.1517 436.172 75.1407 436.404 76.2737C436.759 78.0037 436.698 79.5997 436.224 81.0167C435.764 82.3887 435.096 83.6937 434.238 84.8967C433.402 86.0687 432.46 87.2027 431.435 88.2687C430.448 89.2947 429.568 90.3357 428.819 91.3617C428.086 92.3637 427.544 93.4227 427.208 94.5117C426.89 95.5447 426.938 96.6827 427.354 97.8947L429.415 104.41L435.839 103.092L435.554 96.9717C435.504 95.8847 435.813 94.8277 436.469 93.8317C437.076 92.9107 437.829 91.9387 438.704 90.9427L441.46 87.7957C442.399 86.7217 443.229 85.4927 443.925 84.1437C444.613 82.8077 445.113 81.2717 445.412 79.5797C445.707 77.9077 445.635 75.9727 445.195 73.8297C444.746 71.6417 443.938 69.7187 442.794 68.1157C441.652 66.5177 440.223 65.2277 438.546 64.2787C436.862 63.3257 434.919 62.7097 432.77 62.4467C430.609 62.1847 428.257 62.3067 425.787 62.8137C423.967 63.1867 422.284 63.7047 420.784 64.3537C419.291 65.0007 417.914 65.7557 416.692 66.5987C415.467 67.4467 414.346 68.3827 413.359 69.3797C412.478 70.2697 411.67 71.1847 410.953 72.1037L414.389 75.6807C414.929 76.3297 415.563 76.5377 416.411 76.3627C416.736 76.2957 417.101 76.0617 417.497 75.6657C417.99 75.1747 418.602 74.6117 419.314 73.9917C420.046 73.3527 420.984 72.7137 422.099 72.0917C423.227 71.4637 424.668 70.9657 426.383 70.6137C427.169 70.4507 427.945 70.3697 428.698 70.3697Z"
        fill="#E0E0E0" />
    <path
        d="M68.8076 122.576C67.5756 122.576 66.2977 122.48 64.9947 122.288C63.2797 122.036 61.4756 121.565 59.6336 120.889C57.1166 119.965 54.9166 118.757 53.0966 117.297C51.2656 115.829 49.8236 114.145 48.8076 112.292C47.7866 110.433 47.1977 108.397 47.0537 106.24C46.9127 104.085 47.2657 101.839 48.1027 99.5625C48.9157 97.3455 49.9597 95.5145 51.2057 94.1215C52.4437 92.7375 53.7836 91.6065 55.1876 90.7625C56.5866 89.9235 58.0416 89.2685 59.5146 88.8165L63.5706 87.5745C64.8116 87.1965 65.9277 86.7795 66.8867 86.3355C67.7697 85.9265 68.4036 85.3615 68.8246 84.6065L72.3246 78.3185L80.4716 81.3105L78.5176 89.0205C78.1756 90.5175 77.4876 91.7315 76.4736 92.6145C75.5036 93.4585 74.3627 94.1495 73.0797 94.6685C71.8377 95.1725 70.4736 95.6165 69.0276 95.9865C67.6316 96.3445 66.2686 96.8005 64.9766 97.3425C63.7026 97.8755 62.5297 98.5835 61.4897 99.4475C60.4837 100.283 59.6976 101.459 59.1516 102.945C58.8076 103.883 58.6726 104.794 58.7516 105.651C58.8296 106.516 59.0847 107.338 59.5107 108.094C59.9397 108.856 60.5487 109.553 61.3227 110.166C62.1067 110.786 63.0337 111.294 64.0787 111.678C65.6337 112.249 67.0236 112.566 68.2116 112.62C69.4236 112.675 70.4897 112.629 71.3847 112.482C72.3017 112.334 73.1026 112.18 73.7646 112.025C74.5526 111.839 75.1976 111.846 75.7366 112.045C76.9526 112.491 77.6847 113.374 77.8547 114.596L79.1057 120.436L78.6497 120.614C77.3627 121.115 75.9707 121.548 74.5117 121.899C73.0567 122.249 71.5206 122.467 69.9456 122.547C69.5706 122.566 69.1916 122.576 68.8076 122.576ZM72.8516 79.7365L69.8307 85.1645C69.2947 86.1265 68.4677 86.8705 67.3717 87.3785C66.3637 87.8445 65.1977 88.2805 63.9067 88.6735L59.8526 89.9145C58.4696 90.3395 57.0996 90.9555 55.7806 91.7475C54.4756 92.5315 53.2246 93.5885 52.0636 94.8865C50.9166 96.1715 49.9466 97.8775 49.1826 99.9575C48.4026 102.082 48.0726 104.17 48.2026 106.163C48.3356 108.15 48.8787 110.026 49.8177 111.737C50.7597 113.456 52.1057 115.024 53.8177 116.397C55.5407 117.779 57.6316 118.926 60.0306 119.807C61.7996 120.456 63.5257 120.908 65.1637 121.149C66.7977 121.389 68.3846 121.473 69.8876 121.398C71.3916 121.321 72.8566 121.113 74.2416 120.78C75.4776 120.482 76.6647 120.124 77.7737 119.715L76.7206 114.795C76.6006 113.945 76.1636 113.428 75.3386 113.125C75.0206 113.008 74.5797 113.015 74.0257 113.146C73.3367 113.306 72.5096 113.465 71.5676 113.618C70.5946 113.777 69.4486 113.827 68.1576 113.769C66.8526 113.71 65.3456 113.369 63.6806 112.758C62.5206 112.332 61.4866 111.763 60.6066 111.068C59.7146 110.361 59.0076 109.55 58.5066 108.657C58.0016 107.758 57.6976 106.781 57.6056 105.754C57.5116 104.726 57.6687 103.647 58.0727 102.547C58.6887 100.868 59.5917 99.5265 60.7547 98.5605C61.8827 97.6235 63.1536 96.8555 64.5336 96.2795C65.8756 95.7165 67.2927 95.2415 68.7437 94.8705C70.1397 94.5135 71.4527 94.0855 72.6477 93.6005C73.8117 93.1285 74.8447 92.5045 75.7177 91.7455C76.5427 91.0255 77.1087 90.0175 77.3987 88.7495L79.1006 82.0325L72.8516 79.7365ZM80.7037 76.6995C79.8357 76.6995 78.9646 76.5415 78.1106 76.2275C77.1316 75.8675 76.2757 75.3405 75.5647 74.6615C74.8627 73.9885 74.3017 73.2215 73.8997 72.3805C73.4957 71.5315 73.2636 70.5995 73.2116 69.6115C73.1586 68.6185 73.3096 67.6325 73.6566 66.6825C74.0166 65.7035 74.5436 64.8475 75.2226 64.1365C75.8986 63.4305 76.6746 62.8775 77.5286 62.4945C78.3826 62.1115 79.3076 61.8965 80.2766 61.8535C81.2526 61.8105 82.2416 61.9725 83.2146 62.3285C84.1886 62.6855 85.0516 63.2055 85.7796 63.8725C86.5086 64.5395 87.0767 65.3055 87.4667 66.1475C87.8567 66.9915 88.0746 67.9105 88.1166 68.8795C88.1586 69.8525 87.9986 70.8405 87.6396 71.8165C87.2916 72.7635 86.7786 73.6125 86.1126 74.3395C85.4466 75.0675 84.6806 75.6335 83.8396 76.0245C82.9996 76.4135 82.0716 76.6365 81.0826 76.6895C80.9566 76.6955 80.8307 76.6995 80.7037 76.6995ZM80.5807 62.9985C80.4957 62.9985 80.4117 63.0005 80.3267 63.0035C79.5047 63.0395 78.7216 63.2215 78.0006 63.5445C77.2826 63.8665 76.6286 64.3345 76.0556 64.9325C75.4866 65.5275 75.0426 66.2495 74.7386 67.0785C74.4446 67.8815 74.3176 68.7135 74.3626 69.5505C74.4066 70.3875 74.6007 71.1735 74.9397 71.8845C75.2817 72.5985 75.7596 73.2535 76.3626 73.8295C76.9576 74.3985 77.6787 74.8415 78.5087 75.1465C79.3407 75.4515 80.1837 75.5835 81.0237 75.5395C81.8667 75.4945 82.6507 75.3065 83.3567 74.9795C84.0607 74.6535 84.7026 74.1775 85.2646 73.5625C85.8286 72.9465 86.2646 72.2255 86.5616 71.4195C86.8666 70.5875 87.0027 69.7495 86.9677 68.9295C86.9327 68.1105 86.7486 67.3375 86.4226 66.6305C86.0976 65.9275 85.6196 65.2855 85.0036 64.7225C84.3856 64.1575 83.6506 63.7155 82.8186 63.4095C82.0736 63.1365 81.3227 62.9985 80.5807 62.9985Z"
        fill="#E0E0E0" />
    <path
        d="M384.354 393.013C383.974 381.367 384.856 373.716 384.691 353.511C384.678 347.452 384.567 340.959 384.256 335.186C383.209 315.767 380.328 309.086 380.113 305.338C380.113 305.338 380.098 275.15 379.531 232.686C379.264 212.71 373.579 204.987 369.13 194.313H314.18C307.61 220.363 304.593 278.154 304.332 305.109C304.199 318.852 309.534 380.334 309.617 382.027C309.911 388.032 308.959 391.406 306.566 393.89C301.555 399.091 294.335 402.312 288.09 406.816C288.945 409.19 297.404 410.369 301.106 408.634C307.021 405.861 312.917 401.579 314.944 400.129C320.075 396.46 327.685 395.431 327.862 389.721C327.888 389.01 328.212 387.167 328.177 387.054C328.328 383.721 333.955 345.874 335.636 334.569C337.132 324.504 337.132 307.824 337.132 307.824L342.029 266.663C342.029 266.663 345.853 291.221 349.197 308.126C351.676 320.658 357.048 346.521 360.415 360.22C362.813 369.974 365.581 381.619 367.487 392.334C367.183 396.642 371.272 419.109 372.268 424.327C373.264 429.546 384.597 429.87 385.471 420.937C386.055 414.991 384.447 395.869 384.354 393.013Z"
        fill="#FFA8A7" />
    <path
        d="M280.357 414.918C280.044 414.921 279.605 418.384 281.324 419.837C283.308 421.514 289.111 424.241 296.731 423.177C304.351 422.113 308.459 419.711 311.486 417.124C314.513 414.538 318.756 410.89 322.2 410.094C325.399 409.355 328.866 407.867 329.882 406.865C330.898 405.864 330.711 401.459 330.711 401.459L280.357 414.918Z"
        fill="#263238" />
    <path
        d="M328.49 384.171C328.49 384.171 329.244 384.34 329.451 385.357C329.698 386.569 329.199 390.293 329.724 392.281C330.452 395.044 330.979 400.716 330.582 402.978C330.185 405.239 324.974 406.861 321.647 408.167C318.249 409.501 314.33 412.219 310.896 415.11C307.341 418.102 299.828 421.145 294.856 421.268C287.266 421.456 282.328 419.446 280.783 416.733C278.871 413.376 279.244 410.302 287.927 406.171C289.571 405.389 295.337 401.897 297.301 400.632C299.377 399.296 301.364 397.813 303.193 396.153C304.118 395.313 305.002 394.427 305.829 393.491C306.557 392.667 307.585 391.668 308.01 390.647C308.107 390.416 308.172 390.146 308.258 389.906C308.506 389.213 308.674 388.575 308.806 387.855C308.939 387.129 309.017 386.07 309.703 385.629C310.49 385.122 311.92 385.17 312.817 385.229C313.946 385.303 316.45 385.832 317.546 386.109C319.501 386.603 320.04 387.148 320.813 388.347C321.405 389.265 321.507 390.432 321.564 391.5C321.591 392.009 321.585 392.522 321.595 393.031C321.599 393.248 321.51 393.641 321.814 393.547C322.103 393.458 322.419 392.693 322.526 392.433C322.762 391.86 322.911 391.249 323.17 390.685C323.466 390.04 323.801 389.379 324.237 388.827C324.644 388.311 325.088 387.816 325.603 387.406C326.072 387.034 326.673 386.844 327.087 386.423C327.613 385.892 328.448 384.604 328.49 384.171Z"
        fill="#37474F" />
    <path
        d="M286.526 406.853C297.525 407.499 302.135 415.354 302.644 419.551C299.93 420.543 297.129 421.213 294.856 421.27C287.266 421.458 282.016 419.455 280.47 416.742C278.666 413.574 278.764 409.889 286.526 406.853Z"
        fill="#FAFAFA" />
    <path
        d="M304.083 407.901C304.203 407.9 304.322 407.859 304.422 407.776C304.65 407.586 304.679 407.248 304.49 407.02C302.941 405.162 297.424 401.623 293.433 402.099C293.138 402.133 292.927 402.401 292.963 402.695C292.997 402.989 293.257 403.199 293.559 403.165C297.284 402.732 302.438 406.234 303.667 407.708C303.772 407.837 303.927 407.903 304.083 407.901Z"
        fill="#F0F0F0" />
    <path
        d="M308.789 405.095C308.909 405.094 309.028 405.053 309.128 404.97C309.356 404.781 309.386 404.442 309.196 404.214C307.645 402.354 302.126 398.81 298.14 399.293C297.845 399.327 297.634 399.595 297.67 399.889C297.704 400.182 297.959 400.393 298.266 400.359C301.99 399.921 307.145 403.428 308.373 404.902C308.478 405.031 308.633 405.097 308.789 405.095Z"
        fill="#F0F0F0" />
    <path
        d="M313.142 401.901C313.262 401.9 313.381 401.859 313.481 401.776C313.709 401.587 313.738 401.248 313.549 401.02C312 399.16 306.464 395.621 302.492 396.099C302.197 396.133 301.986 396.401 302.022 396.695C302.056 396.989 302.313 397.198 302.618 397.165C306.338 396.73 311.497 400.235 312.725 401.708C312.832 401.837 312.986 401.903 313.142 401.901Z"
        fill="#F0F0F0" />
    <path
        d="M317.407 398.707C317.524 398.706 317.641 398.667 317.739 398.587C317.97 398.401 318.005 398.062 317.819 397.832C315.687 395.195 309.832 392.389 305.847 392.866C305.552 392.9 305.341 393.169 305.377 393.462C305.411 393.756 305.669 393.959 305.973 393.932C309.562 393.505 315.093 396.17 316.985 398.507C317.092 398.641 317.25 398.709 317.407 398.707Z"
        fill="#F0F0F0" />
    <path
        d="M368.645 428.322C368.861 433.51 369.61 436.96 371.399 440.03C373.188 443.1 376.642 444.112 380.17 443.28C383.699 442.448 388.238 440.142 389.319 435.688C390.4 431.233 391.037 428.178 390.319 423.358L368.645 428.322Z"
        fill="#263238" />
    <path
        d="M384.293 390.628C385.739 390.766 385.623 398.135 386.343 405.118C387.114 412.602 389.293 415.729 389.992 421.866C390.79 428.878 389.58 431.985 387.059 436.175C384.538 440.366 375.791 444.372 371.613 438.243C368.208 433.246 368.538 427.779 368.587 420.784C368.638 413.461 368.24 408.518 367.552 403.072C366.76 396.795 366.222 392.898 367.49 392.336C367.574 393.107 367.652 394.085 367.742 394.842C367.853 395.774 368.106 397.61 368.106 397.61C368.247 398.002 368.621 398.449 368.762 397.818C368.858 397.39 368.823 396.945 368.783 396.515C368.603 394.582 369.578 394.441 370.105 394.3C371.248 393.994 376.673 393.144 377.759 393.087C378.866 393.029 382.688 392.927 383.173 393.565C383.501 393.996 383.538 394.712 383.627 395.596C383.733 396.651 383.746 397.31 384 397.096C384.301 396.843 384.312 394.849 384.301 394.375C384.291 393.921 384.284 392.889 384.285 392.433C384.286 391.984 384.316 391.076 384.293 390.628Z"
        fill="#37474F" />
    <path
        d="M390.497 425.926C390.675 430.275 389.588 433.233 387.614 436.514C385.093 440.705 375.646 444.713 371.469 438.584C369.39 435.534 368.879 431.96 368.646 428.319C371.287 423.691 386.519 421.884 390.497 425.926Z"
        fill="#FAFAFA" />
    <path
        d="M371.93 420.763C371.991 420.758 372.051 420.743 372.109 420.717C372.168 420.691 378.912 418.031 385.408 419.647C385.695 419.713 385.986 419.543 386.059 419.255C386.13 418.967 385.954 418.676 385.666 418.604C378.796 416.898 371.918 419.624 371.661 419.739C371.391 419.864 371.273 420.182 371.396 420.452C371.493 420.663 371.711 420.781 371.93 420.763Z"
        fill="#F0F0F0" />
    <path
        d="M385.171 414.427C385.374 414.41 385.559 414.277 385.632 414.073C385.73 413.793 385.586 413.486 385.307 413.385C378.852 411.079 371.594 414.26 371.321 414.399C371.055 414.532 370.949 414.853 371.083 415.119C371.217 415.383 371.544 415.484 371.803 415.357C371.864 415.327 378.938 412.244 384.944 414.398C385.019 414.424 385.096 414.433 385.171 414.427Z"
        fill="#F0F0F0" />
    <path
        d="M385.023 409.504C385.222 409.487 385.405 409.358 385.48 409.159C385.585 408.88 385.445 408.57 385.168 408.467C378.071 405.792 371.174 409.285 370.918 409.435C370.662 409.585 370.576 409.914 370.726 410.169C370.876 410.425 371.211 410.512 371.46 410.361C371.517 410.327 378.182 406.983 384.788 409.47C384.867 409.501 384.946 409.511 385.023 409.504Z"
        fill="#F0F0F0" />
    <path
        d="M384.748 404.658C384.944 404.642 385.125 404.516 385.203 404.32C385.311 404.044 385.177 403.732 384.901 403.624C378.252 401.009 370.831 404.584 370.552 404.741C370.292 404.883 370.199 405.21 370.343 405.47C370.485 405.73 370.811 405.828 371.072 405.679C371.137 405.644 378.333 402.193 384.506 404.623C384.587 404.654 384.668 404.665 384.748 404.658Z"
        fill="#EBEBEB" />
    <path
        d="M372.964 194.314C379.278 206.293 382.624 217.703 382.701 253.012C382.778 288.321 381.465 298.361 381.533 302.62C381.601 306.878 385.319 316.354 385.417 337.435C385.5 355.293 385.343 368.841 385.343 368.841C385.343 368.841 383.265 373.062 375.235 373.648C367.828 374.189 362.423 371.352 362.423 371.352C362.423 371.352 353.369 341.755 350.937 329.047C348.126 314.355 342.519 279.407 342.519 279.407L338.487 307.824C338.487 307.824 339.172 319.11 337.349 332.877C334.918 351.243 331.912 365.194 331.912 365.194C331.912 365.194 325.155 367.048 318.829 366.849C312.503 366.649 307.784 363.83 307.784 363.83C307.784 363.83 303.565 324.593 303.206 298.596C302.918 277.755 304.377 225.091 306.477 194.314H372.964Z"
        fill="#37474F" />
    <path
        d="M316.086 225.712C319.086 234.37 330.421 240.585 335.426 241.872L339.373 279.427L338.488 307.824L342.52 279.407L337.616 235.165C337.616 235.165 323.697 233.94 316.086 225.712ZM363.823 222.3C364.591 225.696 365.28 229.112 366.019 232.525C366.742 235.943 367.468 239.359 368.253 242.801C368.389 239.267 368.136 235.74 367.73 232.245C367.335 228.744 366.731 225.272 365.992 221.825C365.213 218.388 364.312 214.971 363.145 211.635C361.988 208.302 360.621 205.014 358.779 201.992C359.776 205.379 360.657 208.743 361.489 212.125C362.301 215.51 363.096 218.896 363.823 222.3ZM369.855 215.886C370.955 217.943 371.998 220.025 373.05 222.112L376.152 228.477C375.989 226.074 375.414 223.721 374.653 221.45C373.902 219.17 372.915 216.981 371.821 214.855C370.69 212.748 369.454 210.699 368.044 208.77C366.646 206.836 365.117 204.992 363.365 203.344C364.371 205.53 365.478 207.61 366.578 209.684C367.665 211.764 368.79 213.81 369.855 215.886ZM363.259 304.852C361.598 295.035 360.465 285.119 359.346 275.196C358.263 265.268 357.187 255.329 355.973 245.401C356.412 255.393 356.966 265.376 357.788 275.346C358.588 285.316 359.639 295.283 361.273 305.184C363.032 315.063 364.808 324.862 366.703 334.683C368.569 344.499 370.565 354.294 372.689 364.071C371.337 354.164 369.859 344.274 368.251 334.406C366.673 324.543 364.969 314.659 363.259 304.852ZM316.178 269.718L318.451 241.001C316.814 250.474 315.504 260.002 314.458 269.558C313.44 279.128 312.46 288.658 312.27 298.374C312.435 308.048 313.013 317.607 313.64 327.203C314.263 336.789 315.068 346.364 316.039 355.928C315.93 346.316 315.704 336.713 315.372 327.117L314.885 312.726C314.722 307.938 314.51 303.124 314.491 298.375C314.489 293.646 314.853 288.845 315.151 284.069C315.447 279.284 315.834 274.503 316.178 269.718Z"
        fill="#263238" />
    <path
        d="M282.436 186.126C287.512 189.119 295.309 185.967 301.019 180.84C307.819 174.736 323.978 158.691 323.978 158.691L321.135 131.519C321.135 131.519 312.365 132.01 308.381 136.386C303.816 141.398 295.481 154.365 290.416 161.659C286.08 167.904 282.436 186.126 282.436 186.126Z"
        fill="#F28F8F" />
    <path
        d="M379.238 208.086C378.212 192.67 377.757 187.214 377.757 178.831C377.757 170.448 378.28 166.307 378.421 160.117C378.767 144.902 373.239 135.749 370.134 133.122C370.134 133.122 365.346 132.177 358.546 130.663C356.219 130.145 354.15 129.881 350.618 129.383C342.774 128.276 339.097 129.387 336.163 129.686C334.717 129.833 329.14 130.086 329.14 130.086C327.066 130.57 321.142 131.516 321.135 131.521C321.135 131.521 317.427 135.269 312.996 143.19C309.613 149.235 307.085 153.386 306.475 166.95C305.647 185.333 305.361 209.753 305.361 209.753C313.861 221.12 365.026 224.638 379.238 208.086Z"
        fill="#455A64" />
    <path
        d="M360.764 80.2519C359.288 71.1539 343.501 60.1779 325.625 69.4659C307.749 78.7539 312.619 90.0909 313.415 93.4719C314.076 96.2809 314.639 99.2419 314.582 102.137C314.53 104.789 313.847 107.508 312.183 109.575C310.519 111.641 307.711 112.076 305.621 110.984C305.975 115.11 308.314 118.387 314.484 121.127C316.887 122.194 320.563 122.445 322.561 122.101C321.614 122.716 320.24 123.698 316.185 123.452C318.672 126.676 328.146 130.08 337.01 124.712C337.412 124.469 337.935 124.489 338.402 124.545C338.975 124.613 339.481 124.933 339.993 125.198C343.921 127.232 349.068 126.936 353.291 126.199C355.646 125.788 357.989 125.107 360.01 123.831C362.031 122.555 363.713 120.63 364.346 118.325C364.771 120.42 364.414 122.664 363.36 124.524C364.903 124.089 366.454 123.536 367.691 122.515C369.956 120.646 371.542 117.474 371.332 114.545C371.122 111.616 370.042 108.984 369.027 106.229C367.889 103.138 367.173 100.134 367.303 96.8119C367.407 94.1279 367.387 91.6819 367.142 89.4749C366.636 84.9429 364.645 80.8849 360.764 80.2519Z"
        fill="#263238" />
    <path
        d="M354.134 125.902C354.134 122.739 354.136 113.097 354.136 113.097C354.169 113.909 357.94 116.498 361.742 113.265C366.01 109.635 366.101 104.929 364.194 101.958C362.087 98.6736 356.903 98.4796 354.479 103.431C352.902 105.165 350.343 102.844 351.899 97.9546C352.469 96.1656 350.923 94.9336 350.108 93.6526C349.286 92.3616 349.074 90.7136 348.964 89.2196C348.641 84.8396 347.334 80.9616 342.257 80.7106C340.15 80.6066 338.06 81.2686 336.208 82.2796C335.288 82.7816 334.287 83.3936 333.266 83.1536C332.248 82.9146 331.625 81.9276 330.88 81.1946C329.697 80.0326 327.905 79.2486 326.289 79.8416C323.467 80.8766 321.899 84.4646 321.197 87.1456C320.041 91.5576 319.357 96.1106 319.197 100.669C318.792 112.181 321.784 117.502 325.011 120.13C326.815 121.599 329.248 122.456 333.572 122.402C333.572 122.402 333.694 123.828 333.773 125.949C333.845 127.888 333.639 128.993 331.841 129.456C330.634 129.767 328.901 130.139 328.901 130.139C328.901 130.139 322.882 136.622 334.099 138.075C351.978 140.391 359.909 130.964 359.909 130.964C359.909 130.964 357.904 130.484 357.305 130.302C354.824 129.548 354.134 129.064 354.134 125.902Z"
        fill="#FFA8A7" />
    <path
        d="M333.572 122.403C341.34 122.169 348.616 119.269 351.248 113.097C351.248 113.097 350.961 117.876 346.514 120.855C340.801 124.681 333.72 124.719 333.72 124.719L333.572 122.403Z"
        fill="#F28F8F" />
    <path
        d="M323.544 88.8559L328.35 88.0199C328.168 86.6739 326.944 85.7689 325.616 85.9999C324.29 86.2309 323.362 87.5099 323.544 88.8559Z"
        fill="#263238" />
    <path
        d="M344.29 90.2551L339.777 88.2451C340.289 86.9681 341.715 86.3831 342.962 86.9381C344.208 87.4931 344.803 88.9791 344.29 90.2551Z"
        fill="#263238" />
    <path
        d="M327.882 95.4559C327.889 96.5679 326.982 97.4979 325.857 97.5359C324.732 97.5729 323.815 96.7009 323.809 95.5899C323.802 94.4779 324.709 93.5469 325.833 93.5109C326.957 93.4739 327.875 94.3449 327.882 95.4559Z"
        fill="#263238" />
    <path
        d="M342.559 96.8553C342.566 97.9663 341.659 98.8973 340.534 98.9343C339.409 98.9713 338.492 98.0993 338.486 96.9883C338.479 95.8763 339.386 94.9463 340.51 94.9093C341.634 94.8723 342.552 95.7433 342.559 96.8553Z"
        fill="#263238" />
    <path
        d="M336.221 109.92C336.225 110.643 335.635 111.249 334.903 111.273C334.171 111.297 333.574 110.73 333.57 110.007C333.565 109.283 334.155 108.678 334.887 108.654C335.619 108.63 336.217 109.197 336.221 109.92Z"
        fill="#B16668" />
    <path
        d="M349.377 92.2119L361.119 99.7389C359.823 99.4809 358.963 99.4609 357.26 100.302L348.803 94.9619L349.377 92.2119Z"
        fill="#455A64" />
    <path
        d="M317.243 92.8298C318.009 94.3408 317.7 97.0248 318.415 98.7548C319.142 102.199 325.135 104.502 328.557 101.32C329.129 100.773 329.559 100.106 329.907 99.4418C330.823 97.6938 330.779 95.1548 332.107 94.9518C335.76 94.7198 332.011 104.111 341.911 104.199C346.709 104.307 347.935 99.8028 348.646 96.1728C348.925 95.1258 349.786 94.9768 349.979 93.6738C350.039 92.2798 349.101 91.8958 348.051 91.8028C345.023 91.2318 340.772 90.6938 338.343 91.1888C335.304 91.8208 334.201 92.7148 332.534 92.5818C330.978 92.4468 330.026 91.3868 327.254 90.2858C324.778 89.3148 320.632 89.1558 317.557 89.3138C316.021 89.5858 316.519 92.1078 317.243 92.8298ZM336.075 93.9798C338.3 91.7318 345.388 92.0858 346.773 93.7568C347.534 94.7488 346.766 97.9688 346.246 99.4728C346.179 99.6538 346.103 99.8338 346.017 100.024C345.334 102.054 343.141 102.907 341.011 102.772C339.434 102.673 337.892 102.029 337.037 100.901C336.255 99.9438 335.945 98.8418 335.817 98.0838C335.552 96.5488 335.46 94.7658 336.075 93.9798ZM323.193 90.8158C328.626 91.7228 330.684 93.1398 328.724 98.5248C327.997 101.109 324.157 102.246 321.55 100.711C319.578 99.5398 319.197 97.2108 319.024 96.1358C318.372 91.6598 318.694 90.5138 323.193 90.8158Z"
        fill="#455A64" />
    <path
        d="M325.969 102.957L332.168 106.467L333.911 96.6574C333.72 96.0464 333.507 95.5574 333.244 95.3564L325.969 102.957Z"
        fill="#F28F8F" />
    <path
        d="M394.495 227.854C394.33 233.218 395.267 237.872 395.026 240.543C394.785 243.214 394.772 244.667 394.359 246.801C393.945 248.934 392.363 251.322 392.363 251.322C392.363 251.322 391.446 254.608 390.329 256.637C389.216 258.657 386.423 261.33 386.418 261.346C385.509 263.927 385.541 264.187 385.151 265.291C385.025 265.648 384.885 266.094 384.576 266.313C384.312 266.501 383.892 266.421 383.621 266.242C382.873 265.748 382.758 265.013 382.667 264.652C382.259 263.031 382.82 261.431 383.163 259.795C383.63 257.566 384.138 255.417 384.238 253.134C384.223 253.481 383.939 253.995 383.809 254.311C383.565 254.906 383.464 255.533 383.24 256.143C382.178 259.039 381.117 261.935 380.056 264.831C379.958 265.099 379.848 265.383 379.616 265.549C379.345 265.744 378.959 265.723 378.666 265.561C378.373 265.4 378.163 265.12 378.009 264.824C377.426 263.705 377.556 262.36 377.753 261.113C378.011 259.484 378.359 257.869 378.795 256.279C379.25 254.615 379.687 252.817 379.886 251.095C380.096 249.285 380.3 247.752 380.185 245.936C380.139 245.213 380.223 242.068 378.697 243.367C378.35 243.663 378.184 244.112 378.022 244.539C377.546 245.793 376.974 247.039 376.076 248.035C375.178 249.031 373.904 249.758 372.563 249.734C372.358 249.73 372.146 249.707 371.966 249.608C371.584 249.397 371.453 248.892 371.533 248.463C371.612 248.035 371.855 247.658 372.067 247.276C372.119 247.183 372.169 247.089 372.217 246.994C374.13 243.262 374.268 239.264 375.953 235.93C376.482 234.884 377.436 232.694 378.033 231.151C378.559 229.791 379.617 228.344 379.798 225.458C379.979 222.572 377.251 192.124 377.251 192.124L369.724 166.547C363.917 146.273 366.966 138.151 370.137 133.119C379.845 135.234 383.494 139.421 385.766 145.099C387.242 148.787 388.004 152.141 390.28 161.891C392.803 172.701 393.53 176.778 395.265 185.544C396.2 190.269 396.373 192.51 395.832 203.494C395.359 213.066 394.66 222.49 394.495 227.854Z"
        fill="#FFA8A7" />
    <path
        d="M386.416 261.346C387.361 259.506 388.668 255.425 389.081 253.406C389.443 251.374 389.666 249.308 389.562 247.246C389.325 249.293 389.083 251.323 388.679 253.329C388.315 255.343 387.044 259.385 386.416 261.346Z"
        fill="#F28F8F" />
    <path
        d="M392.363 251.322C392.826 250.387 393.032 249.361 393.21 248.349C393.336 247.327 393.439 246.299 393.341 245.263C393.099 246.272 392.977 247.283 392.805 248.288L392.363 251.322Z"
        fill="#F28F8F" />
    <path
        d="M384.236 253.135C385.017 251.283 385.509 247.949 385.509 247.949C385.509 247.949 386.102 251.764 384.109 254.916L384.236 253.135Z"
        fill="#F28F8F" />
    <path
        d="M282.129 185.923C279.768 184.206 278.143 177.772 280.809 170.147C282.897 164.175 286.829 160.821 292.109 155.241C298.812 148.158 302.963 145.267 303.04 138.181C303.101 132.625 302.698 132 304.395 128.376C305.297 126.449 307.39 122.052 308.201 120.552C309.012 119.053 311.835 116.408 313.757 113.941C315.711 111.622 316.676 114.613 316.088 116.438C315.321 118.817 314.226 120.272 313.255 121.891C312.337 123.421 311.965 124.976 311.31 126.583C312.52 126.238 315.613 125.702 316.871 125.73C317.883 125.752 319.116 125.565 319.832 126.466C320.235 126.973 320.452 128.011 320.646 128.606C320.646 128.606 321.212 128.627 321.611 129.052C322.018 129.486 322.071 130.307 322.025 130.865C321.989 131.302 321.842 131.886 321.842 131.886C322.515 131.918 323.094 132.595 323.269 133.065C323.865 134.665 323.451 137.031 323.298 137.382C323.207 137.591 322.298 139.171 322.039 139.636C321.664 140.307 321.447 140.911 320.996 141.196C320.461 141.534 319.273 140.514 319.164 139.682C319.003 138.79 319.312 137.498 319.417 136.94C318.622 137.268 317.932 137.551 317.032 137.681C315.811 138.395 317.467 140.229 316.504 145C315.776 148.604 312.573 150.81 311.636 152.33C305.9 161.632 304.466 172.054 297.877 179.575C295.245 182.579 286.703 189.25 282.129 185.923Z"
        fill="#FFA8A7" />
    <path
        d="M308.215 128.016C308.908 127.425 310.814 126.739 311.309 126.583C311.435 126.272 311.546 125.965 311.658 125.658C310.276 126.175 308.623 126.985 308.215 128.016ZM309.346 131.183C309.698 130.835 310.135 130.604 310.577 130.401C311.013 130.188 311.467 130.012 311.931 129.875C312.851 129.591 313.813 129.453 314.789 129.298C315.758 129.137 316.732 129.006 317.705 128.866C318.68 128.744 319.654 128.613 320.645 128.604C319.669 128.376 318.658 128.397 317.666 128.429C316.67 128.466 315.683 128.584 314.699 128.732C313.728 128.899 312.723 129.059 311.782 129.46C310.868 129.858 309.92 130.345 309.346 131.183ZM313.156 132.882C312.253 133.217 311.246 133.532 310.604 134.309C310.973 133.986 311.444 133.846 311.891 133.689C312.346 133.539 312.809 133.412 313.278 133.305C314.214 133.089 315.157 132.892 316.106 132.725C318.004 132.379 319.901 132.061 321.841 131.885C320.872 131.732 319.886 131.751 318.911 131.804C317.934 131.857 316.965 131.994 316.002 132.162C315.042 132.344 314.085 132.56 313.156 132.882ZM319.163 139.68C319.204 139.241 319.237 138.839 319.369 138.474C319.457 138.144 319.619 137.89 319.77 137.522C319.887 137.512 319.996 137.49 320.106 137.456C320.281 137.402 320.432 137.299 320.566 137.192C320.836 136.976 321.024 136.691 321.125 136.384C320.866 136.578 320.612 136.743 320.36 136.858C320.231 136.912 320.098 136.941 319.975 136.968C319.858 136.991 319.706 136.986 319.64 136.975L319.417 136.938L319.316 137.165C319.183 137.462 319.087 137.846 319.045 138.3C319.006 138.764 318.94 139.298 319.163 139.68Z"
        fill="#F28F8F" />
    <path
        d="M115.626 393.007C116.904 377.967 115.709 371.643 117.247 348.153C117.431 342.13 117.726 335.678 118.2 329.949C119.794 310.674 122.862 304.111 123.183 300.392C123.183 300.392 122.173 266.688 123.94 224.491C124.771 204.641 130.625 198.692 135.372 188.203L193.67 188.853C196.752 215.128 196.574 263.872 196.074 290.674C195.819 304.339 189.549 372.209 189.418 373.89C188.954 379.851 189.45 382.212 191.77 384.747C196.629 390.055 203.705 395.136 209.817 399.785C208.896 402.122 201.48 401.954 197.83 400.126C191.998 397.207 186.228 392.787 184.244 391.291C179.221 387.502 171.871 384.414 171.855 378.733C171.849 378.026 171.659 377.829 171.697 377.717C171.64 374.4 165.219 330.604 164.707 319.25C164.266 309.487 165.657 292.943 165.657 292.943L160.45 259.298C160.45 259.298 158.138 287.377 153.994 304.013C150.621 317.554 144.682 335.43 140.868 352.1C137.169 371.31 131.905 384.955 130.909 394.581C130.615 396.878 127.73 419.431 126.587 424.591C125.444 429.751 114.112 429.762 113.491 420.858C113.075 414.931 115.385 395.838 115.626 393.007Z"
        fill="#B16668" />
    <path
        d="M220.239 405.904C220.552 405.904 221.022 409.344 219.317 410.805C217.349 412.491 211.574 415.259 203.948 414.274C196.322 413.289 192.195 410.94 189.146 408.397C186.097 405.854 181.823 402.268 178.374 401.509C175.17 400.804 171.208 398.41 170.183 397.424C169.159 396.439 169.306 392.056 169.306 392.056L220.239 405.904Z"
        fill="#263238" />
    <path
        d="M171.555 376.111C171.555 376.111 170.98 376.129 170.781 377.143C170.545 378.35 170.288 381.862 169.781 383.844C169.078 386.598 169.03 391.318 169.447 393.564C169.865 395.809 175.57 398.319 178.908 399.586C182.317 400.88 186.258 403.545 189.717 406.387C193.297 409.329 200.834 412.282 205.805 412.357C213.393 412.471 218.31 410.426 219.831 407.713C221.712 404.357 220.242 402.411 211.526 398.386C209.876 397.624 204.081 394.207 202.106 392.969C200.019 391.66 198.019 390.205 196.177 388.571C195.245 387.745 194.353 386.872 193.518 385.949C192.782 385.136 191.747 384.153 191.312 383.142C191.214 382.913 191.145 382.645 191.057 382.407C190.803 381.721 190.629 381.088 190.491 380.373C190.351 379.652 190.264 378.6 189.575 378.167C188.784 377.67 187.355 377.732 186.458 377.799C185.33 377.883 184.197 378.026 183.095 378.271C181.811 378.557 180.326 378.67 179.564 379.869C178.98 380.788 178.889 381.949 178.842 383.012C178.82 383.518 178.83 384.028 178.825 384.535C178.823 384.751 178.915 385.141 178.61 385.05C178.32 384.964 177.997 384.207 177.888 383.95C177.647 383.383 177.493 382.776 177.228 382.218C176.926 381.58 176.585 380.926 176.145 380.381C175.734 379.872 174.375 379.361 173.857 378.959C173.385 378.593 172.783 378.411 172.364 377.996C171.833 377.469 171.601 376.54 171.555 376.111Z"
        fill="#37474F" />
    <path
        d="M212.932 399.049C201.944 399.797 198.477 406.545 198.006 410.722C200.727 411.683 203.533 412.322 205.806 412.356C213.394 412.47 218.623 410.428 220.144 407.715C221.917 404.55 220.717 401.995 212.932 399.049Z"
        fill="#FAFAFA" />
    <path
        d="M196.459 399.152C196.34 399.152 196.22 399.113 196.12 399.031C195.89 398.845 195.858 398.508 196.045 398.28C197.576 396.418 201.99 393.953 205.983 394.388C206.279 394.419 206.492 394.684 206.459 394.976C206.427 395.268 206.17 395.48 205.868 395.449C202.141 395.054 198.09 397.479 196.875 398.956C196.77 399.085 196.616 399.152 196.459 399.152Z"
        fill="#F0F0F0" />
    <path
        d="M191.732 396.408C191.612 396.408 191.492 396.369 191.392 396.287C191.162 396.101 191.13 395.764 191.317 395.536C192.85 393.672 197.265 391.202 201.255 391.644C201.551 391.675 201.763 391.94 201.73 392.232C201.699 392.524 201.446 392.736 201.139 392.705C197.412 392.305 193.361 394.735 192.147 396.212C192.042 396.341 191.888 396.408 191.732 396.408Z"
        fill="#F0F0F0" />
    <path
        d="M187.351 393.272C187.231 393.272 187.111 393.233 187.011 393.151C186.782 392.965 186.749 392.629 186.936 392.4C188.467 390.536 192.899 388.07 196.874 388.508C197.169 388.539 197.382 388.804 197.349 389.096C197.317 389.389 197.063 389.599 196.757 389.569C193.035 389.172 188.979 391.599 187.765 393.076C187.661 393.205 187.507 393.272 187.351 393.272Z"
        fill="#F0F0F0" />
    <path
        d="M183.059 390.138C182.943 390.138 182.824 390.1 182.726 390.022C182.493 389.839 182.456 389.503 182.64 389.272C184.747 386.629 189.504 384.89 193.492 385.326C193.787 385.357 194.001 385.622 193.968 385.914C193.937 386.206 193.68 386.41 193.377 386.387C189.786 385.997 185.35 387.592 183.48 389.935C183.374 390.07 183.217 390.138 183.059 390.138Z"
        fill="#F0F0F0" />
    <path
        d="M130.097 428.661C129.734 433.813 128.889 437.221 127.014 440.224C125.14 443.227 121.66 444.137 118.158 443.213C114.656 442.288 110.185 439.872 109.231 435.414C108.277 430.956 107.726 427.902 108.58 423.13L130.097 428.661Z"
        fill="#263238" />
    <path
        d="M115.772 391.167C114.324 391.264 113.814 398.181 112.898 405.102C111.916 412.521 109.65 415.568 108.779 421.65C107.783 428.598 108.904 431.72 111.306 435.955C113.706 440.19 122.333 444.414 126.68 438.436C130.223 433.562 130.432 428.116 130.197 421.164C129.953 413.977 130.512 409.009 130.871 403.561C131.214 398.354 132.436 393.113 131.185 392.519C131.08 393.283 130.974 394.253 130.862 395.003C130.725 395.926 130.71 396.897 130.362 397.776C130.21 398.161 129.882 398.564 129.758 397.933C129.674 397.504 129.722 397.063 129.774 396.637C130.009 394.72 129.038 394.553 128.516 394.398C127.383 394.062 122.897 393.462 121.814 393.377C120.709 393.289 116.894 393.082 116.391 393.703C116.051 394.123 115.994 394.833 115.88 395.71C115.744 396.756 115.491 397.52 115.465 397.191C115.405 396.441 115.574 394.493 115.599 394.022C115.622 393.571 115.704 392.956 115.715 392.503C115.727 392.058 115.736 391.612 115.772 391.167Z"
        fill="#37474F" />
    <path
        d="M108.33 425.678C108.029 429.996 109.032 432.967 110.911 436.282C113.311 440.517 122.637 444.763 126.984 438.785C129.147 435.81 129.759 432.272 130.095 428.659C127.588 423.984 112.419 421.769 108.33 425.678Z"
        fill="#FAFAFA" />
    <path
        d="M127.026 421.056C126.966 421.049 126.906 421.033 126.849 421.005C126.791 420.977 120.127 418.147 113.591 419.575C113.302 419.633 113.016 419.455 112.952 419.167C112.889 418.879 113.073 418.594 113.363 418.531C120.276 417.025 127.071 419.924 127.325 420.045C127.591 420.177 127.7 420.496 127.569 420.761C127.466 420.968 127.245 421.08 127.026 421.056Z"
        fill="#F0F0F0" />
    <path
        d="M113.975 414.392C113.773 414.37 113.591 414.232 113.524 414.028C113.434 413.747 113.586 413.445 113.868 413.354C120.383 411.24 127.545 414.602 127.814 414.747C128.076 414.886 128.173 415.209 128.031 415.47C127.89 415.729 127.56 415.82 127.305 415.687C127.244 415.655 120.264 412.396 114.202 414.371C114.126 414.394 114.05 414.4 113.975 414.392Z"
        fill="#F0F0F0" />
    <path
        d="M114.262 409.505C114.063 409.483 113.885 409.349 113.815 409.15C113.718 408.87 113.866 408.566 114.146 408.47C121.313 406.006 128.105 409.669 128.357 409.825C128.609 409.981 128.686 410.31 128.528 410.56C128.371 410.811 128.034 410.888 127.789 410.731C127.733 410.695 121.168 407.188 114.498 409.479C114.419 409.506 114.339 409.513 114.262 409.505Z"
        fill="#F0F0F0" />
    <path
        d="M114.674 404.694C114.478 404.672 114.301 404.542 114.23 404.346C114.129 404.069 114.272 403.763 114.552 403.662C121.269 401.245 128.583 405.004 128.857 405.167C129.112 405.315 129.196 405.644 129.045 405.898C128.896 406.153 128.567 406.241 128.311 406.086C128.247 406.049 121.155 402.421 114.918 404.666C114.836 404.694 114.754 404.703 114.674 404.694Z"
        fill="#EBEBEB" />
    <path
        d="M129.256 188.333C122.609 200.067 122.308 209.691 121.234 244.789C120.159 279.887 120.227 293.418 120.039 297.649C119.851 301.88 119.085 309.419 116.664 330.246C114.243 351.073 116.153 370.715 116.153 370.715C116.153 370.715 117.613 374.087 125.619 374.891C133.004 375.633 136.698 372.913 136.698 372.913C136.698 372.913 146.835 337.213 149.933 324.72C154.626 305.793 160.348 267.698 160.348 267.698L164.155 293.49C164.155 293.49 161.764 304.972 163.802 323.283C165.84 341.593 168.435 355.061 168.435 355.061C168.435 355.061 174.737 357.195 181.064 357.171C187.39 357.147 191.405 354.399 191.405 354.399C191.405 354.399 197.844 305.526 198.09 284.8C198.335 264.074 196.701 214.174 194.995 189.274L129.256 188.333Z"
        fill="#37474F" />
    <path
        d="M117.519 372.229C117.817 372.461 118.177 372.703 118.605 372.945C116.952 340.155 121.637 326.616 124.517 314.105C124.794 312.903 125.057 311.761 125.3 310.67C127.479 300.89 125.727 284.462 125.885 268.343C125.933 263.494 125.982 258.479 126.092 253.154C126.22 246.924 126.486 240.475 127.072 234.099C138.569 232.864 141.196 221.609 144.503 207.399C144.955 205.457 145.423 203.448 145.93 201.386L144.913 201.14C144.406 203.206 143.937 205.219 143.484 207.165C140.17 221.404 137.737 231.746 127.171 233.021C128.592 218.541 131.766 204.528 139.031 194.457L138.182 193.851C127.374 208.831 125.477 232.225 125.045 253.134C124.935 258.464 124.885 263.481 124.837 268.333C124.68 284.392 126.431 300.771 124.276 310.445C124.033 311.534 123.771 312.674 123.494 313.873C120.626 326.343 115.964 339.767 117.519 372.229ZM167.437 231.127L160.349 267.697L164.156 293.489L164.534 268.703L169.306 244.04C169.443 246.496 169.586 249.014 169.732 251.585C170.936 272.789 171.668 289.068 170.494 294.11C167.274 307.932 168.07 316.683 169.513 332.57C169.659 334.183 169.812 335.868 169.969 337.639C170.76 346.616 171.787 350.251 172.388 356.03C172.72 356.117 173.084 356.206 173.468 356.294C172.867 350.53 171.819 346.713 171.011 337.547C170.855 335.777 170.702 334.091 170.556 332.476C169.122 316.696 168.332 308.004 171.513 294.345C172.721 289.157 172.043 273.838 170.777 251.525C170.547 247.477 170.325 243.557 170.122 239.822L171.125 235.379C176.163 234.237 184.26 230.502 185.813 223.621C177.975 231.59 167.437 231.127 167.437 231.127Z"
        fill="#263238" />
    <path
        d="M179.256 121.049C189.43 122.996 194.322 126.255 199.61 135.268C204.898 144.28 212.814 166.87 212.745 171.954H191.584L179.256 121.049Z"
        fill="#B16668" />
    <path
        d="M192.838 163.84C197.343 162.63 200.67 161.773 203.039 161.824C201.123 160.574 192.678 162.023 192.678 162.023L192.838 163.84Z"
        fill="#9A4A4D" />
    <path
        d="M178.754 120.395C185.962 120.963 191.197 122.96 196 128.84C200.803 134.72 201.217 137.004 203.762 143.431C206.307 149.858 208.033 154.145 208.033 154.145C208.033 154.145 203.195 162.807 187.476 161.505L181.879 144.732L178.754 120.395Z"
        fill="#37474F" />
    <path
        d="M140.563 117.449C140.563 117.449 130.249 121.116 121.152 124.401C121.152 124.401 113.072 128.152 118.524 157.468C119.899 164.859 122.698 175.621 123.462 184.756C123.896 189.949 123.127 202.285 122.437 212.982C122.437 212.982 139.035 223.831 168.714 220.518C192.016 217.917 196.368 207.337 196.368 207.337C196.368 207.337 194.861 181.422 192.917 164.088C190.125 139.196 185.151 125.274 178.754 120.395L165.482 118.977L140.563 117.449Z"
        fill="#455A64" />
    <path
        d="M133.168 94.1666C135.456 101.816 138.045 105.11 139.217 107.224C140.389 109.338 142.69 109.878 142.69 109.878L142.207 100.684L141.696 94.2816C141.696 94.2816 146.682 89.4556 146.999 84.8376C147.138 82.8076 146.949 81.0936 146.644 79.7076L177.264 80.9196C177.264 80.9196 179.865 73.0886 175.673 67.0776C171.657 61.3176 165.846 57.7196 155.607 58.5426C143.11 59.5486 136.789 65.8906 136.041 71.0856L136.051 71.0946C134.808 71.6026 132.871 72.8276 131.468 75.7446C130.347 78.0736 129.613 82.2826 133.168 94.1666Z"
        fill="#263238" />
    <path
        d="M134.483 102.845C134.763 103.038 135.056 103.213 135.364 103.366C136.129 103.748 137.081 104.097 137.948 104.106C138.692 104.114 139.482 103.732 140.133 103.373C140.864 102.971 141.597 102.447 142.144 101.808L140.433 118.731C146.48 130.083 174.031 132.75 164.801 120.766L165.136 114.621C165.136 114.621 166.718 114.582 169.208 114.11C173.364 113.334 177.284 110.022 178.404 105.419C180.057 98.6083 178.747 84.4133 177.427 76.4483C177.055 74.2013 174.708 71.5993 172.662 70.6433C167.584 68.2713 163.048 72.0043 156.142 74.9393C153.282 76.1553 146.285 76.8413 144.412 76.0123C146.156 78.2393 146.346 80.4623 146.365 81.7553C146.384 83.1203 146.095 84.9693 145.591 86.2433C145.085 87.5203 144.443 88.7583 144.18 90.1163C144.06 90.7393 143.994 91.4353 143.53 91.8683C142.941 92.4163 141.958 92.2643 141.307 91.7933C140.655 91.3223 140.228 90.6123 139.719 89.9893C139.049 89.1683 138.193 88.4673 137.181 88.1553C135.244 87.5583 133.051 88.5573 131.871 90.2053C130.691 91.8523 130.4 94.0053 130.644 96.0173C130.969 98.6883 132.295 101.335 134.483 102.845Z"
        fill="#B16668" />
    <path
        d="M165.137 114.623C159.659 114.735 154.78 114.18 151.51 112.887C148.241 111.594 145.256 107.249 144.199 102.889C144.294 106.418 145.993 112.636 150.963 115.106C155.933 117.576 161.397 117.459 164.983 117.443L165.137 114.623Z"
        fill="#9A4A4D" />
    <path
        d="M157.77 80.2316L153.698 83.1906C152.899 81.9996 153.163 80.3706 154.288 79.5536C155.413 78.7366 156.971 79.0396 157.77 80.2316Z"
        fill="#263238" />
    <path
        d="M175.494 82.571L170.484 81.789C170.641 80.373 171.89 79.401 173.273 79.617C174.657 79.833 175.652 81.155 175.494 82.571Z"
        fill="#263238" />
    <path
        d="M155.725 87.628C155.839 88.766 156.843 89.596 157.968 89.482C159.093 89.368 159.913 88.354 159.799 87.216C159.685 86.078 158.681 85.248 157.556 85.362C156.431 85.476 155.611 86.491 155.725 87.628Z"
        fill="#263238" />
    <path
        d="M170.903 86.1339C171.017 87.2719 172.021 88.1019 173.146 87.9879C174.271 87.8739 175.091 86.8599 174.977 85.7219C174.863 84.5839 173.859 83.7539 172.734 83.8679C171.609 83.9819 170.789 84.9959 170.903 86.1339Z"
        fill="#263238" />
    <path d="M164.195 84.3281L166.147 97.3851L173.433 94.3591C170.689 89.8811 167.609 86.5371 164.195 84.3281Z"
        fill="#9A4A4D" />
    <path
        d="M163.865 102.114C163.87 102.851 163.268 103.469 162.521 103.494C161.774 103.518 161.166 102.94 161.162 102.203C161.157 101.465 161.759 100.848 162.505 100.823C163.252 100.798 163.861 101.376 163.865 102.114Z"
        fill="#9A4A4D" />
    <path
        d="M137.375 191.631C138.397 191.668 139.418 191.666 140.442 191.686C143.081 191.737 145.725 191.686 148.356 191.46C149.999 191.319 151.637 191.11 153.259 190.816C154.683 190.558 156.284 190.352 157.635 189.866C160.451 188.855 163.247 187.7 165.995 186.543C168.662 185.42 172.33 185.21 175.205 184.971C181.963 184.409 187.996 184.43 194.704 183.409C200.037 182.597 203.052 181.301 206.077 180.009C207.735 179.3 210.355 177.286 211.82 174.992C213.614 172.181 212.655 170.308 210.147 168.56C208.01 167.07 201.761 163.967 192.836 163.84C188.57 164.953 183.574 166.626 178.856 168.174C174.421 169.63 171.056 170.818 166.528 171.953C164.975 172.342 162.726 172.421 160.58 172.121C158.702 171.858 157.072 171.274 155.252 170.973C152.905 170.585 150.648 169.931 148.245 169.928C144.212 169.923 140.09 171.219 137.358 171.59C134.627 171.961 134.811 173.475 136.866 174.607C137.853 175.151 139.178 175.096 140.27 175.092C141.567 175.087 142.863 174.99 144.159 175.042C144.462 175.054 145.054 175.008 145.216 175.339C145.398 175.712 144.963 176.034 144.679 176.165C143.062 176.911 141.268 176.706 139.537 176.694C137.637 176.681 135.736 176.668 133.836 176.656C133.076 176.651 132.316 176.646 131.557 176.692C130.484 176.758 129.388 176.919 128.793 177.918C128.617 178.213 128.485 178.558 128.517 178.905C128.544 179.2 128.69 179.443 128.361 179.662C128.11 179.829 127.788 179.831 127.493 179.893C126.857 180.028 126.299 180.486 126.043 181.083C125.787 181.68 125.84 182.401 126.181 182.954C126.438 183.371 126.837 183.682 127.263 183.923C127.474 184.042 127.7 184.152 127.851 184.34C127.978 184.498 128.04 184.696 128.118 184.883C128.322 185.373 128.646 185.813 129.054 186.152C129.787 186.76 130.743 187.021 131.68 187.19C132.473 187.333 133.275 187.422 134.077 187.511C135.169 187.632 136.255 187.803 137.345 187.941C137.816 188 138.287 188.051 138.759 188.103C138.995 188.129 139.23 188.155 139.466 188.183C139.66 188.206 139.971 188.191 140.136 188.283C140.004 188.414 139.457 188.357 139.261 188.369C138.924 188.389 138.587 188.41 138.25 188.435C137.603 188.484 136.957 188.549 136.318 188.658C135.879 188.733 135.442 188.845 135.048 189.053C134.411 189.389 133.79 190.12 134.065 190.895C134.168 191.186 134.497 191.325 134.798 191.394C135.078 191.458 135.364 191.49 135.65 191.519C136.227 191.577 136.801 191.61 137.375 191.631Z"
        fill="#B16668" />
    <path
        d="M155.386 181.558C157.111 178.528 158.484 175.278 159.386 171.906C157.986 171.613 156.676 171.21 155.253 170.974C152.906 170.586 150.649 169.932 148.247 169.929C144.214 169.924 140.091 171.22 137.36 171.591C134.629 171.962 134.813 173.476 136.868 174.608C137.855 175.152 139.18 175.097 140.272 175.093C141.569 175.088 142.865 174.991 144.161 175.043C144.464 175.055 145.056 175.009 145.218 175.34C145.4 175.713 144.965 176.035 144.681 176.166C143.064 176.912 141.27 176.707 139.539 176.695C137.639 176.682 135.738 176.669 133.838 176.657C133.078 176.652 132.318 176.647 131.559 176.693C130.486 176.759 129.39 176.92 128.795 177.919C128.62 178.214 128.488 178.559 128.52 178.906C128.543 179.156 128.634 179.368 128.466 179.56C128.863 179.843 129.242 180.14 129.496 180.576C130.101 181.613 130.707 182.649 131.312 183.686C129.794 183.854 128.255 183.809 126.746 183.572C126.909 183.704 127.084 183.823 127.266 183.926C127.465 184.038 127.672 184.147 127.823 184.317C128.914 184.68 130.169 184.762 131.219 185.268C132.256 185.767 133.032 186.65 133.836 187.485C133.918 187.494 133.999 187.504 134.08 187.513C135.172 187.634 136.258 187.805 137.348 187.943C137.819 188.002 138.29 188.053 138.762 188.105C138.998 188.131 139.233 188.157 139.469 188.185C139.663 188.208 139.974 188.193 140.139 188.285C140.007 188.415 139.461 188.359 139.265 188.371C138.928 188.391 138.591 188.412 138.254 188.437C137.607 188.486 136.961 188.551 136.322 188.66C136.01 188.713 135.705 188.8 135.41 188.912C138.603 191.38 143.061 192.551 146.808 190.854C147.284 190.639 147.743 190.389 148.186 190.113C151.402 188.101 153.545 184.791 155.386 181.558Z"
        fill="#9A4A4D" />
    <path
        d="M143.051 190.556C139.296 190.226 135.894 189.925 130.446 181.181C126.226 174.41 123.62 169.627 118.876 160.438C114.067 151.124 111.236 144.477 111.712 138.858C112.129 133.938 112.764 128.303 121.41 124.967C131.02 129.335 134.519 137.426 137.835 145.871C141.151 154.316 148.064 170.079 148.064 170.079L143.051 190.556Z"
        fill="#B16668" />
    <path
        d="M121.152 124.401C112.153 128.078 108.877 134.89 111.363 145.013C114.156 156.388 122.483 171.076 122.483 171.076C122.483 171.076 126.882 171.719 133.28 167.578C139.678 163.436 143.065 156.454 143.065 156.454C143.065 156.454 139.347 147.759 137.6 142.961C134.146 133.479 127.649 125.938 121.152 124.401Z"
        fill="#37474F" />
    <path
        d="M133.932 171.93C134.191 161.738 138.836 155.537 142.385 147.909C145.934 140.282 147.87 135.685 149.182 131.067C150.493 126.45 151.151 119.734 150.525 116.303C150.013 113.498 148.942 110.347 148.297 108.637C147.652 106.927 148.344 106.745 149.962 106.82C151.579 106.894 153.321 107.655 154.819 110.646C156.318 113.636 156.739 115.423 157.422 115.231C158.105 115.038 161.651 110.992 163.701 109.063C165.751 107.135 166.521 107.068 169.71 106.685C172.899 106.302 176.031 106.451 177.334 106.859C178.637 107.266 180.557 109.101 181.343 109.718C182.432 110.572 180.58 112.131 178.538 111.396C176.497 110.662 176.497 110.662 176.497 110.662C177.303 111.294 177.242 112.153 177.37 113.222C177.497 114.292 176.739 115.215 176.739 115.215C176.739 115.215 177.487 115.442 177.773 116.794C178.059 118.146 177.677 119.238 177.677 119.238C177.677 119.238 178.4 119.096 178.857 119.855C179.313 120.614 179.927 121.831 177.207 124.307C174.487 126.783 172.478 128.449 170.139 130.388C167.746 132.372 166.976 133.365 166.096 134.64C164.661 136.718 164.236 140.224 163.324 145.871C161.303 158.382 160.913 161.491 158.767 169.144C157.137 174.958 155.229 180.974 148.906 187.491C143.333 193.235 139.62 189.932 137.442 185.807C135.261 181.682 133.844 175.392 133.932 171.93Z"
        fill="#B16668" />
    <path
        d="M133.931 171.93C133.693 162.485 139.133 154.378 142.836 146.1C144.695 141.907 146.601 137.727 148.029 133.392C149.778 128.035 150.691 122.249 150.121 116.634C149.659 113.856 148.732 111.078 147.778 108.423C146.808 105.68 150.767 106.214 152.182 107.012C154.87 108.559 155.636 111.733 156.918 114.297C157.025 114.509 157.259 114.931 157.354 114.867C160.106 112.703 162.198 109.605 165.141 107.57C166.171 106.908 167.396 106.736 168.524 106.605C170.807 106.324 173.133 106.201 175.433 106.423C177.883 106.42 179.634 108.207 181.343 109.718C179.584 108.301 177.825 106.592 175.413 106.664C173.13 106.513 170.845 106.702 168.583 107.049C167.452 107.208 166.329 107.39 165.416 108.005C162.479 110.108 160.532 113.296 157.639 115.519C156.473 116.003 155.953 113.773 155.525 113.059C154.603 111.1 153.754 108.801 151.798 107.725C150.926 107.233 149.687 107.122 148.755 107.288C148.294 107.404 148.511 107.803 148.586 108.178C149.951 111.962 151.362 115.928 151.216 120.004C151.173 129.358 147.435 138.109 143.474 146.392C139.609 154.655 134.096 162.49 133.931 171.93Z"
        fill="#9A4A4D" />
    <path
        d="M168.277 111.803C170.677 110.464 173.975 108.772 176.496 110.662C175.123 110.259 173.756 110.219 172.425 110.723C171.205 111.068 169.504 111.53 168.277 111.803Z"
        fill="#9A4A4D" />
    <path
        d="M170.504 116.934C172.344 115.774 174.531 114.925 176.739 115.215C174.677 115.823 172.655 116.628 170.504 116.934Z"
        fill="#9A4A4D" />
    <path
        d="M172.258 121.922C173.735 120.891 176.046 119.991 177.676 119.239C176.342 120.846 174.278 121.63 172.258 121.922Z"
        fill="#9A4A4D" />
    <path
        d="M245.028 32.6749C225.205 32.7079 209.119 48.8769 209.168 68.6829C209.218 86.4559 222.229 101.219 239.208 104.046L243.258 114.445C243.952 116.214 246.465 116.214 247.16 114.429L251.161 104.013C268.14 101.12 281.085 86.2899 281.035 68.5339C280.987 48.7119 264.834 32.6259 245.028 32.6749ZM245.127 101.716C226.825 101.716 212.012 86.8859 212.012 68.6009C212.012 50.3159 226.825 35.4859 245.127 35.4859C263.412 35.4859 278.225 50.3159 278.225 68.6009C278.225 86.8859 263.412 101.716 245.127 101.716Z"
        fill="#455A64" />
    <path
        d="M277.353 76.2275C281.556 58.4299 270.535 40.5951 252.737 36.3926C234.94 32.1901 217.105 43.2111 212.902 61.0088C208.7 78.8065 219.721 96.6412 237.519 100.844C255.316 105.046 273.151 94.0252 277.353 76.2275Z"
        fill="white" />
    <path
        d="M231.625 51.6458C232.411 50.9528 233.273 50.2938 234.207 49.6698C235.143 49.0458 236.154 48.5038 237.24 48.0408C238.325 47.5798 239.505 47.2148 240.775 46.9498C242.045 46.6848 243.42 46.5508 244.899 46.5508C246.91 46.5508 248.741 46.8278 250.393 47.3828C252.043 47.9378 253.46 48.7288 254.638 49.7568C255.817 50.7848 256.73 52.0268 257.377 53.4818C258.023 54.9378 258.346 56.5668 258.346 58.3688C258.346 60.1248 258.092 61.6448 257.584 62.9268C257.076 64.2088 256.44 65.3238 255.678 66.2708C254.915 67.2188 254.077 68.0388 253.164 68.7318C252.251 69.4248 251.391 70.0778 250.583 70.6898C249.773 71.3018 249.074 71.9028 248.485 72.4918C247.896 73.0808 247.544 73.7458 247.428 74.4848L246.632 79.5448H240.774L240.185 73.8958C240.046 72.8098 240.203 71.8568 240.653 71.0368C241.103 70.2168 241.704 69.4648 242.456 68.7838C243.206 68.1028 244.044 67.4438 244.968 66.8078C245.891 66.1728 246.759 65.4798 247.567 64.7278C248.375 63.9778 249.052 63.1338 249.595 62.1988C250.138 61.2628 250.409 60.1478 250.409 58.8538C250.409 58.0218 250.254 57.2768 249.941 56.6188C249.629 55.9598 249.197 55.3938 248.642 54.9208C248.087 54.4478 247.422 54.0838 246.649 53.8288C245.875 53.5748 245.037 53.4478 244.137 53.4478C242.82 53.4478 241.705 53.5928 240.793 53.8808C239.879 54.1698 239.105 54.4928 238.47 54.8518C237.835 55.2098 237.298 55.5328 236.858 55.8218C236.42 56.1108 236.028 56.2548 235.68 56.2548C234.848 56.2548 234.247 55.9088 233.877 55.2158L231.625 51.6458ZM238.177 88.6808C238.177 87.9648 238.31 87.2828 238.575 86.6358C238.84 85.9898 239.204 85.4348 239.666 84.9728C240.128 84.5108 240.683 84.1408 241.33 83.8638C241.977 83.5868 242.67 83.4478 243.41 83.4478C244.15 83.4478 244.835 83.5868 245.472 83.8638C246.107 84.1408 246.662 84.5108 247.136 84.9728C247.609 85.4348 247.984 85.9898 248.262 86.6358C248.539 87.2828 248.678 87.9648 248.678 88.6808C248.678 89.4208 248.539 90.1078 248.262 90.7428C247.985 91.3788 247.609 91.9278 247.136 92.3898C246.662 92.8518 246.107 93.2158 245.472 93.4808C244.835 93.7458 244.15 93.8798 243.41 93.8798C242.67 93.8798 241.977 93.7468 241.33 93.4808C240.683 93.2158 240.128 92.8518 239.666 92.3898C239.204 91.9278 238.84 91.3788 238.575 90.7428C238.309 90.1078 238.177 89.4208 238.177 88.6808Z"
        fill="#1F2D7C" />
</svg>