<svg width="203" height="207" viewBox="0 0 203 207" fill="none" xmlns="http://www.w3.org/2000/svg">
<path d="M166.032 0H13.1874C5.90421 0 0 5.90421 0 13.1874V49.9393C0 57.2225 5.90421 63.1267 13.1874 63.1267H166.032C173.315 63.1267 179.219 57.2225 179.219 49.9393V13.1874C179.219 5.90421 173.315 0 166.032 0Z" fill="#F2F2F2"/>
<path fill-rule="evenodd" clip-rule="evenodd" d="M13.1874 0H32.2119C24.8615 0 19.0245 5.83706 19.0245 13.1874V49.9393C19.0245 57.2896 24.8615 63.1267 32.2119 63.1267H13.1874C5.83706 63.1267 0 57.2896 0 49.9393V13.1874C0 5.83706 5.83706 0 13.1874 0Z" fill="#E6E6E6"/>
<path d="M155.655 11.8906H23.7812C17.4531 11.8906 12.3232 15.5687 12.3232 20.1057V43.2378C12.3232 47.7749 17.4531 51.4529 23.7812 51.4529H155.655C161.983 51.4529 167.113 47.7749 167.113 43.2378V20.1057C167.113 15.5687 161.983 11.8906 155.655 11.8906Z" fill="#2A53BD"/>
<path fill-rule="evenodd" clip-rule="evenodd" d="M20.5384 11.8906H40.4276C35.8877 11.8906 31.9963 15.5658 31.9963 20.1057V43.2378C31.9963 47.7777 35.8877 51.4529 40.4276 51.4529H20.5384C15.9984 51.4529 12.3232 47.7777 12.3232 43.2378V20.1057C12.3232 15.5658 15.9984 11.8906 20.5384 11.8906Z" fill="#2E4E9C"/>
<path d="M33.0769 39.3467C37.3752 39.3467 40.8597 35.8623 40.8597 31.564C40.8597 27.2657 37.3752 23.7812 33.0769 23.7812C28.7786 23.7812 25.2942 27.2657 25.2942 31.564C25.2942 35.8623 28.7786 39.3467 33.0769 39.3467Z" fill="#FFD202"/>
<path fill-rule="evenodd" clip-rule="evenodd" d="M33.0769 23.7812C33.7255 23.7812 34.3741 23.9974 35.0226 23.9974C31.5636 25.0784 29.1856 28.105 29.1856 31.564C29.1856 35.2392 31.5636 38.2658 35.0226 39.1305C34.3741 39.3467 33.7255 39.3467 33.0769 39.3467C28.7532 39.3467 25.2942 35.8877 25.2942 31.564C25.2942 27.2402 28.7532 23.7812 33.0769 23.7812Z" fill="#F0C400"/>
<path d="M62.6944 39.3467C66.9927 39.3467 70.4771 35.8623 70.4771 31.564C70.4771 27.2657 66.9927 23.7812 62.6944 23.7812C58.3961 23.7812 54.9116 27.2657 54.9116 31.564C54.9116 35.8623 58.3961 39.3467 62.6944 39.3467Z" fill="#FFD202"/>
<path fill-rule="evenodd" clip-rule="evenodd" d="M62.6944 23.7812C63.3429 23.7812 63.9915 23.9974 64.64 23.9974C61.3972 25.0784 58.803 28.105 58.803 31.564C58.803 35.2392 61.3972 38.2658 64.64 39.1305C63.9915 39.3467 63.3429 39.3467 62.6944 39.3467C58.3706 39.3467 54.9116 35.8877 54.9116 31.564C54.9116 27.2402 58.3706 23.7812 62.6944 23.7812Z" fill="#F0C400"/>
<path d="M91.4478 39.3467C95.7461 39.3467 99.2305 35.8623 99.2305 31.564C99.2305 27.2657 95.7461 23.7812 91.4478 23.7812C87.1495 23.7812 83.665 27.2657 83.665 31.564C83.665 35.8623 87.1495 39.3467 91.4478 39.3467Z" fill="#FFD202"/>
<path fill-rule="evenodd" clip-rule="evenodd" d="M91.4478 23.7812C92.0963 23.7812 92.7449 23.9974 93.3935 23.9974C90.1507 25.0784 87.5564 28.105 87.5564 31.564C87.5564 35.2392 90.1507 38.2658 93.3935 39.1305C92.7449 39.3467 92.0963 39.3467 91.4478 39.3467C87.124 39.3467 83.665 35.8877 83.665 31.564C83.665 27.2402 87.124 23.7812 91.4478 23.7812Z" fill="#F0C400"/>
<path d="M150.364 25.9421H112.418C110.388 25.9421 108.743 28.4587 108.743 31.563V31.6444C108.743 34.7487 110.388 37.2652 112.418 37.2652H150.364C152.393 37.2652 154.039 34.7487 154.039 31.6444V31.563C154.039 28.4587 152.393 25.9421 150.364 25.9421Z" fill="#E6E6E6"/>
<path fill-rule="evenodd" clip-rule="evenodd" d="M114.364 25.9421H120.633C117.607 25.9421 115.012 28.5364 115.012 31.563C115.012 34.8058 117.607 37.1839 120.633 37.1839H114.364C111.337 37.1839 108.743 34.8058 108.743 31.563C108.743 28.5364 111.337 25.9421 114.364 25.9421Z" fill="#DBDBDB"/>
<path d="M166.032 63.1267H13.1874C5.90421 63.1267 0 69.0309 0 76.3141V113.066C0 120.349 5.90421 126.253 13.1874 126.253H166.032C173.315 126.253 179.219 120.349 179.219 113.066V76.3141C179.219 69.0309 173.315 63.1267 166.032 63.1267Z" fill="#F2F2F2"/>
<path fill-rule="evenodd" clip-rule="evenodd" d="M13.1874 63.1267H32.2119C24.8615 63.1267 19.0245 69.18 19.0245 76.5303V113.282C19.0245 120.416 24.8615 126.47 32.2119 126.47H13.1874C5.83706 126.47 0 120.416 0 113.282V76.5303C0 69.18 5.83706 63.1267 13.1874 63.1267Z" fill="#E6E6E6"/>
<path d="M155.655 75.0168H23.7812C17.4531 75.0168 12.3232 78.6949 12.3232 83.232V106.364C12.3232 110.901 17.4531 114.579 23.7812 114.579H155.655C161.983 114.579 167.113 110.901 167.113 106.364V83.232C167.113 78.6949 161.983 75.0168 155.655 75.0168Z" fill="#2A53BD"/>
<path fill-rule="evenodd" clip-rule="evenodd" d="M20.5384 75.0168H40.4276C35.8877 75.0168 31.9963 78.692 31.9963 83.232V106.364C31.9963 110.904 35.8877 114.579 40.4276 114.579H20.5384C15.9984 114.579 12.3232 110.904 12.3232 106.364V83.232C12.3232 78.692 15.9984 75.0168 20.5384 75.0168Z" fill="#2E4E9C"/>
<path d="M33.0769 102.688C37.3752 102.688 40.8597 99.2038 40.8597 94.9055C40.8597 90.6073 37.3752 87.1228 33.0769 87.1228C28.7786 87.1228 25.2942 90.6073 25.2942 94.9055C25.2942 99.2038 28.7786 102.688 33.0769 102.688Z" fill="#FFD202"/>
<path fill-rule="evenodd" clip-rule="evenodd" d="M33.0769 87.1228C33.7255 87.1228 34.3741 87.1228 35.0226 87.339C31.5636 88.2037 29.1856 91.2304 29.1856 94.9055C29.1856 98.3645 31.5636 101.391 35.0226 102.256C34.3741 102.472 33.7255 102.688 33.0769 102.688C28.7532 102.688 25.2942 99.2293 25.2942 94.9055C25.2942 90.5818 28.7532 87.1228 33.0769 87.1228Z" fill="#F0C400"/>
<path d="M62.6944 102.688C66.9927 102.688 70.4771 99.2038 70.4771 94.9055C70.4771 90.6073 66.9927 87.1228 62.6944 87.1228C58.3961 87.1228 54.9116 90.6073 54.9116 94.9055C54.9116 99.2038 58.3961 102.688 62.6944 102.688Z" fill="#FFD202"/>
<path fill-rule="evenodd" clip-rule="evenodd" d="M62.6944 87.1228C63.3429 87.1228 63.9915 87.1228 64.64 87.339C61.3972 88.2037 58.803 91.2304 58.803 94.9055C58.803 98.3645 61.3972 101.391 64.64 102.256C63.9915 102.472 63.3429 102.688 62.6944 102.688C58.3706 102.688 54.9116 99.2293 54.9116 94.9055C54.9116 90.5818 58.3706 87.1228 62.6944 87.1228Z" fill="#F0C400"/>
<path d="M91.4478 102.688C95.7461 102.688 99.2305 99.2038 99.2305 94.9055C99.2305 90.6073 95.7461 87.1228 91.4478 87.1228C87.1495 87.1228 83.665 90.6073 83.665 94.9055C83.665 99.2038 87.1495 102.688 91.4478 102.688Z" fill="#FFD202"/>
<path fill-rule="evenodd" clip-rule="evenodd" d="M91.4478 87.1228C92.0963 87.1228 92.7449 87.1228 93.3935 87.339C90.1507 88.2037 87.5564 91.2304 87.5564 94.9055C87.5564 98.3645 90.1507 101.391 93.3935 102.256C92.7449 102.472 92.0963 102.688 91.4478 102.688C87.124 102.688 83.665 99.2293 83.665 94.9055C83.665 90.5818 87.124 87.1228 91.4478 87.1228Z" fill="#F0C400"/>
<path d="M150.363 89.0686H112.418C110.388 89.0686 108.743 91.5852 108.743 94.6895V94.7708C108.743 97.8751 110.388 100.392 112.418 100.392H150.363C152.393 100.392 154.038 97.8751 154.038 94.7708V94.6895C154.038 91.5852 152.393 89.0686 150.363 89.0686Z" fill="#E6E6E6"/>
<path fill-rule="evenodd" clip-rule="evenodd" d="M114.364 89.0686H120.633C117.606 89.0686 115.012 91.6629 115.012 94.9057C115.012 97.9323 117.606 100.527 120.633 100.527H114.364C111.337 100.527 108.743 97.9323 108.743 94.9057C108.743 91.6629 111.337 89.0686 114.364 89.0686Z" fill="#DBDBDB"/>
<path d="M166.032 126.469H13.1874C5.90421 126.469 0 132.373 0 139.656V176.408C0 183.691 5.90421 189.595 13.1874 189.595H166.032C173.315 189.595 179.219 183.691 179.219 176.408V139.656C179.219 132.373 173.315 126.469 166.032 126.469Z" fill="#F2F2F2"/>
<path fill-rule="evenodd" clip-rule="evenodd" d="M13.1874 126.469H32.2119C24.8615 126.469 19.0245 132.306 19.0245 139.656V176.408C19.0245 183.758 24.8615 189.595 32.2119 189.595H13.1874C5.83706 189.595 0 183.758 0 176.408V139.656C0 132.306 5.83706 126.469 13.1874 126.469Z" fill="#E6E6E6"/>
<path d="M155.655 138.141H23.7812C17.4531 138.141 12.3232 141.819 12.3232 146.356V169.489C12.3232 174.026 17.4531 177.704 23.7812 177.704H155.655C161.983 177.704 167.113 174.026 167.113 169.489V146.356C167.113 141.819 161.983 138.141 155.655 138.141Z" fill="#2A53BD"/>
<path fill-rule="evenodd" clip-rule="evenodd" d="M20.5384 138.141H40.4276C35.8877 138.141 31.9963 142.033 31.9963 146.573V169.489C31.9963 174.245 35.8877 177.92 40.4276 177.92H20.5384C15.9984 177.92 12.3232 174.245 12.3232 169.489V146.573C12.3232 142.033 15.9984 138.141 20.5384 138.141Z" fill="#2E4E9C"/>
<path d="M33.0769 165.815C37.3752 165.815 40.8597 162.33 40.8597 158.032C40.8597 153.734 37.3752 150.249 33.0769 150.249C28.7786 150.249 25.2942 153.734 25.2942 158.032C25.2942 162.33 28.7786 165.815 33.0769 165.815Z" fill="#FFD202"/>
<path fill-rule="evenodd" clip-rule="evenodd" d="M33.0769 150.249C33.7255 150.249 34.3741 150.465 35.0226 150.465C31.5636 151.33 29.1856 154.357 29.1856 158.032C29.1856 161.707 31.5636 164.734 35.0226 165.599C34.3741 165.815 33.7255 165.815 33.0769 165.815C28.7532 165.815 25.2942 162.356 25.2942 158.032C25.2942 153.708 28.7532 150.249 33.0769 150.249Z" fill="#F0C400"/>
<path d="M62.6944 165.815C66.9927 165.815 70.4771 162.33 70.4771 158.032C70.4771 153.734 66.9927 150.249 62.6944 150.249C58.3961 150.249 54.9116 153.734 54.9116 158.032C54.9116 162.33 58.3961 165.815 62.6944 165.815Z" fill="#FFD202"/>
<path fill-rule="evenodd" clip-rule="evenodd" d="M62.6944 150.249C63.3429 150.249 63.9915 150.465 64.64 150.465C61.3972 151.33 58.803 154.357 58.803 158.032C58.803 161.707 61.3972 164.734 64.64 165.599C63.9915 165.815 63.3429 165.815 62.6944 165.815C58.3706 165.815 54.9116 162.356 54.9116 158.032C54.9116 153.708 58.3706 150.249 62.6944 150.249Z" fill="#F0C400"/>
<path d="M91.4478 165.815C95.7461 165.815 99.2305 162.33 99.2305 158.032C99.2305 153.734 95.7461 150.249 91.4478 150.249C87.1495 150.249 83.665 153.734 83.665 158.032C83.665 162.33 87.1495 165.815 91.4478 165.815Z" fill="#FFD202"/>
<path fill-rule="evenodd" clip-rule="evenodd" d="M91.4478 150.249C92.0963 150.249 92.7449 150.465 93.3935 150.465C90.1507 151.33 87.5564 154.357 87.5564 158.032C87.5564 161.707 90.1507 164.734 93.3935 165.599C92.7449 165.815 92.0963 165.815 91.4478 165.815C87.124 165.815 83.665 162.356 83.665 158.032C83.665 153.708 87.124 150.249 91.4478 150.249Z" fill="#F0C400"/>
<path d="M150.364 152.41H112.418C110.388 152.41 108.743 154.927 108.743 158.031V158.113C108.743 161.217 110.388 163.733 112.418 163.733H150.364C152.393 163.733 154.039 161.217 154.039 158.113V158.031C154.039 154.927 152.393 152.41 150.364 152.41Z" fill="#E6E6E6"/>
<path fill-rule="evenodd" clip-rule="evenodd" d="M114.364 152.41H120.633C117.607 152.41 115.012 155.005 115.012 158.031C115.012 161.274 117.607 163.652 120.633 163.652H114.364C111.337 163.652 108.743 161.274 108.743 158.031C108.743 155.005 111.337 152.41 114.364 152.41Z" fill="#DBDBDB"/>
<path d="M154.141 206.893C181.125 206.893 202.999 185.018 202.999 158.034C202.999 131.051 181.125 109.176 154.141 109.176C127.157 109.176 105.283 131.051 105.283 158.034C105.283 185.018 127.157 206.893 154.141 206.893Z" fill="#FFD202"/>
<path fill-rule="evenodd" clip-rule="evenodd" d="M154.141 109.176C156.519 109.176 158.897 109.392 161.059 109.825C137.495 113.067 119.335 133.605 119.335 158.034C119.335 182.68 137.495 203.001 161.059 206.46C158.897 206.677 156.519 206.893 154.141 206.893C127.118 206.893 105.283 185.058 105.283 158.034C105.283 131.011 127.118 109.176 154.141 109.176Z" fill="#F0C400"/>
<path d="M154.186 128.415H154.142C149.724 128.415 146.143 130.738 146.143 133.603V161.916C146.143 164.782 149.724 167.105 154.142 167.105H154.186C158.603 167.105 162.185 164.782 162.185 161.916V133.603C162.185 130.738 158.603 128.415 154.186 128.415Z" fill="#4D4D4D"/>
<path d="M154.142 187.865C158.559 187.865 162.141 184.284 162.141 179.866C162.141 175.449 158.559 171.867 154.142 171.867C149.724 171.867 146.143 175.449 146.143 179.866C146.143 184.284 149.724 187.865 154.142 187.865Z" fill="#4D4D4D"/>
</svg>
