<svg width="300" height="260" viewBox="0 0 300 260" fill="none" xmlns="http://www.w3.org/2000/svg">
<path d="M28.8335 99.6506L110.253 99.6506L110.253 29.108L28.8335 29.108L28.8335 99.6506Z" fill="#E6E6E6"/>
<path d="M27.0237 99.6506L108.443 99.6506L108.443 29.108L27.0237 29.108L27.0237 99.6506Z" fill="#F5F5F5"/>
<path d="M105.196 97.1295L105.196 31.6287L30.2718 31.6287L30.2718 97.1295L105.196 97.1295Z" fill="#FAFAFA"/>
<path d="M75.1458 97.1298L88.7202 31.629H60.3216L46.7466 97.1298H75.1458Z" fill="white"/>
<path d="M31.6394 97.13L31.6394 31.6292H30.2714L30.2714 97.13H31.6394Z" fill="#E6E6E6"/>
<path d="M28.367 85.3845L107.1 85.3845V81.9999L28.367 81.9999V85.3845Z" fill="#F5F5F5"/>
<path d="M106.481 209.583H119.482V153.2H106.481V209.583Z" fill="#F0F0F0"/>
<path d="M21.5668 213.156H116.985V209.584H21.5668V213.156Z" fill="#F0F0F0"/>
<path d="M106.481 153.2H19.071V209.584H106.481V153.2Z" fill="#F5F5F5"/>
<path d="M101.369 160.14H24.1819V178.631H101.369V160.14Z" fill="#F0F0F0"/>
<path d="M101.369 184.151H24.1819V202.643H101.369V184.151Z" fill="#F0F0F0"/>
<path d="M41.9724 170.654H83.5788C84.276 170.654 84.8466 170.083 84.8466 169.386C84.8466 168.689 84.276 168.118 83.5788 168.118H41.9724C41.2752 168.118 40.7046 168.689 40.7046 169.386C40.7046 170.083 41.2752 170.654 41.9724 170.654Z" fill="#F5F5F5"/>
<path d="M41.9724 194.665H83.5788C84.276 194.665 84.8466 194.095 84.8466 193.397C84.8466 192.7 84.276 192.13 83.5788 192.13H41.9724C41.2752 192.13 40.7046 192.7 40.7046 193.397C40.7046 194.095 41.2752 194.665 41.9724 194.665Z" fill="#F5F5F5"/>
<path d="M242.308 65.9784C249.712 63.9378 252.244 50.505 233.533 45.0216C237.66 58.5306 229.399 69.5364 242.308 65.9784Z" fill="#EBEBEB"/>
<path d="M243.945 71.8098C249.779 65.5014 244.261 51.2376 223.238 57.0648C235.132 67.4718 233.773 82.8084 243.945 71.8098Z" fill="#E0E0E0"/>
<path d="M238.182 73.4274C233.297 68.5908 240.294 51.7626 256.422 59.5614C247.283 68.2992 246.701 81.8592 238.182 73.4274Z" fill="#FAFAFA"/>
<path d="M233.314 82.8504H247.527L248.6 73.2336H232.241L233.314 82.8504Z" fill="#E6E6E6"/>
<path d="M232.081 74.9526H248.759C249.346 74.9526 249.821 74.4774 249.821 73.8912C249.821 73.305 249.346 72.8298 248.759 72.8298H232.081C231.494 72.8298 231.019 73.305 231.019 73.8912C231.02 74.4774 231.495 74.9526 232.081 74.9526Z" fill="#E6E6E6"/>
<path d="M113.719 196.868V180.58H127.288V164.291H140.857V148.004H154.426V131.715H167.995V115.427H181.564V99.1393H195.133V82.8505H208.703H283.333V213.156H113.719H100.149V196.868H113.719Z" fill="#FAFAFA"/>
<path d="M188.349 196.868V180.58H201.918V164.291H215.487V148.004H229.057V131.715H242.626V115.427H256.195V99.1393H269.764V82.8505H283.333V99.1393V213.156H188.349H174.78V196.868H188.349Z" fill="#E0E0E0"/>
<path d="M174.779 196.868H99.3491V201.754H174.779V196.868Z" fill="#EBEBEB"/>
<path d="M188.349 180.58H112.919V185.466H188.349V180.58Z" fill="#EBEBEB"/>
<path d="M201.918 164.292H126.488V169.178H201.918V164.292Z" fill="#EBEBEB"/>
<path d="M215.487 148.003H140.057V152.89H215.487V148.003Z" fill="#EBEBEB"/>
<path d="M229.056 131.715H153.626V136.601H229.056V131.715Z" fill="#EBEBEB"/>
<path d="M242.626 115.427H167.195V120.313H242.626V115.427Z" fill="#EBEBEB"/>
<path d="M256.195 99.1387H180.764V104.025H256.195V99.1387Z" fill="#EBEBEB"/>
<path d="M269.764 82.8505H194.334V87.7369H269.764V82.8505Z" fill="#EBEBEB"/>
<path d="M243.79 67.8505C234.513 61.536 214.566 58.302 203.332 62.031C188.988 66.792 189.496 77.2453 179.055 83.7109C150.862 101.17 122.224 89.4295 92.4261 81.9012C26.3859 65.217 -14.9805 128.76 49.8855 167.825C88.8765 191.307 170.788 208.458 180.009 146.213C183.995 119.31 169.603 117.263 203.048 111.401C216.245 109.087 285.813 96.4513 243.79 67.8505Z" fill="#407BFF"/>
<path opacity="0.9" d="M243.79 67.8505C234.513 61.536 214.566 58.302 203.332 62.031C188.988 66.792 189.496 77.2453 179.055 83.7109C150.862 101.17 122.224 89.4295 92.4261 81.9012C26.3859 65.217 -14.9805 128.76 49.8855 167.825C88.8765 191.307 170.788 208.458 180.009 146.213C183.995 119.31 169.603 117.263 203.048 111.401C216.245 109.087 285.813 96.4513 243.79 67.8505Z" fill="white"/>
<path d="M133.333 240.254C197.583 240.254 249.667 237.212 249.667 233.46C249.667 229.708 197.583 226.666 133.333 226.666C69.0842 226.666 17 229.708 17 233.46C17 237.212 69.0842 240.254 133.333 240.254Z" fill="#F5F5F5"/>
<path d="M184.15 78.8928C184.047 80.691 183.836 82.344 183.602 84.0552C183.366 85.7526 183.049 87.4368 182.687 89.1168C181.978 92.4774 181.002 95.811 179.657 99.0606L179.116 100.271L178.98 100.573L178.912 100.723C178.89 100.772 178.873 100.815 178.82 100.916C178.651 101.254 178.434 101.609 178.127 101.956C177.82 102.299 177.434 102.632 176.979 102.863C176.535 103.095 176.045 103.247 175.608 103.294C174.717 103.4 174.02 103.243 173.429 103.068C172.27 102.689 171.434 102.166 170.646 101.632C169.871 101.087 169.177 100.511 168.513 99.9216C165.906 97.5222 163.734 94.953 161.734 92.16L163.725 90.477C164.894 91.5858 166.114 92.7054 167.332 93.7692C168.546 94.8426 169.802 95.859 171.067 96.768C171.696 97.2216 172.334 97.6452 172.961 97.9944C173.575 98.3442 174.213 98.6304 174.653 98.7168C174.862 98.76 175.004 98.7348 174.939 98.7204C174.88 98.6934 174.613 98.8182 174.557 98.8896C174.521 98.9208 174.521 98.9178 174.53 98.8812L174.723 98.3802L175.142 97.29C176.183 94.3326 176.969 91.23 177.574 88.0758C177.889 86.5014 178.112 84.9036 178.351 83.3106C178.578 81.7308 178.76 80.0808 178.898 78.5634L184.15 78.8928Z" fill="#FFC3BD"/>
<path d="M180.516 72.2904C178.28 72.8598 176.716 82.0614 176.716 82.0614L182.878 86.2518C182.878 86.2518 188.786 76.9686 187.066 74.5104C185.274 71.9502 183.779 71.4594 180.516 72.2904Z" fill="#407BFF"/>
<path d="M180.516 72.2904C178.28 72.8598 176.716 82.0614 176.716 82.0614L182.878 86.2518C182.878 86.2518 188.786 76.9686 187.066 74.5104C185.274 71.9502 183.779 71.4594 180.516 72.2904Z" fill="#407BFF"/>
<path opacity="0.4" d="M180.516 72.2904C178.28 72.8598 176.716 82.0614 176.716 82.0614L182.878 86.2518C182.878 86.2518 188.786 76.9686 187.066 74.5104C185.274 71.9502 183.779 71.4594 180.516 72.2904Z" fill="black"/>
<path opacity="0.3" d="M180.718 74.3453L179 83.6201L182.464 85.9685L180.718 74.3453Z" fill="black"/>
<path d="M163.841 90.0882L160.91 85.4586L159.248 90.7194C159.248 90.7194 161.652 93.2406 163.826 92.6394L163.841 90.0882Z" fill="#FFC3BD"/>
<path d="M156.613 83.9274L155.459 88.4076L159.247 90.72L160.91 85.4592L156.613 83.9274Z" fill="#FFC3BD"/>
<path d="M192.614 227.17H187.189L186.826 214.606H192.252L192.614 227.17Z" fill="#FFC3BD"/>
<path d="M240.49 201.969L236.355 205.481L226.891 197.035L231.026 193.523L240.49 201.969Z" fill="#FFC3BD"/>
<path d="M235.221 205.06L239.232 200.47C239.377 200.303 239.612 200.269 239.796 200.388L243.884 203.038C244.308 203.313 244.381 203.948 244.038 204.328C242.613 205.904 241.845 206.594 240.081 208.612C238.996 209.854 237.54 211.781 236.042 213.496C234.577 215.174 232.768 213.821 233.238 212.972C235.347 209.169 234.839 207.833 234.876 205.963C234.883 205.625 235.008 205.305 235.221 205.06Z" fill="#263238"/>
<path d="M187.003 226.542H193.098C193.32 226.542 193.5 226.696 193.531 226.913L194.226 231.736C194.298 232.236 193.868 232.709 193.356 232.7C191.231 232.664 190.207 232.539 187.526 232.539C185.877 232.539 182.467 232.71 180.189 232.71C177.962 232.71 177.79 230.458 178.739 230.254C182.99 229.34 184.664 228.079 186.096 226.876C186.354 226.659 186.678 226.542 187.003 226.542Z" fill="#263238"/>
<path opacity="0.2" d="M186.827 214.61L187.013 221.086H192.441L192.255 214.61H186.827Z" fill="black"/>
<path opacity="0.2" d="M231.029 193.524L226.893 197.038L231.773 201.39L235.91 197.876L231.029 193.524Z" fill="black"/>
<path d="M180.516 72.2904C180.516 72.2904 177.931 73.2006 183.109 105.035C191.852 105.035 200.888 105.035 205.144 105.035C204.774 96.0672 204.763 90.5376 209.05 72.1332C209.05 72.1332 204.433 71.1288 199.693 70.9002C195.985 70.7214 192.947 70.6032 189.687 70.9008C185.389 71.2926 180.516 72.2904 180.516 72.2904Z" fill="#407BFF"/>
<path opacity="0.4" d="M180.516 72.2904C180.516 72.2904 177.931 73.2006 183.109 105.035C191.852 105.035 200.888 105.035 205.144 105.035C204.774 96.0672 204.763 90.5376 209.05 72.1332C209.05 72.1332 204.433 71.1288 199.693 70.9002C195.985 70.7214 192.947 70.6032 189.687 70.9008C185.389 71.2926 180.516 72.2904 180.516 72.2904Z" fill="black"/>
<path d="M199.693 70.8972C195.985 70.7232 192.949 70.6032 189.685 70.9032C189.145 70.9512 188.593 71.0112 188.047 71.0772C187.681 71.7072 187.405 72.5532 187.747 73.4172C188.449 75.1632 190.981 75.3672 192.829 75.3672C199.651 75.3672 200.803 71.3832 200.851 71.2152L200.917 70.9752C200.509 70.9452 200.101 70.9152 199.693 70.8972Z" fill="white"/>
<path d="M198.702 59.634C198.07 62.8536 197.44 68.7522 199.693 70.9002C199.693 70.9002 198.813 74.166 192.831 74.166C186.253 74.166 189.687 70.9008 189.687 70.9008C193.277 70.0434 193.185 67.38 192.559 64.8786L198.702 59.634Z" fill="#FFC3BD"/>
<path opacity="0.2" d="M196.197 61.7736L192.562 64.8756C192.712 65.4678 192.829 66.0678 192.87 66.6516C194.242 66.4536 196.126 64.9482 196.271 63.5118C196.344 62.7954 196.314 62.1072 196.197 61.7736Z" fill="black"/>
<path d="M194.962 42.1254C194.403 40.2396 193.922 37.2594 197.293 35.943C195.981 34.3356 195.66 31.311 197.272 29.514C198.883 27.7176 201.35 28.3812 201.35 28.3812C201.35 28.3812 202.07 23.9952 207.403 24.7632C212.737 25.5306 210.361 29.0616 210.361 29.0616C210.361 29.0616 217.641 27.6198 218.127 34.4772C218.613 41.3346 214.434 40.4886 214.434 40.4886C214.434 40.4886 217.681 43.2108 215.883 46.2048C214.085 49.1994 209.924 48.1674 209.924 48.1674C209.924 48.1674 207.968 53.4576 203.362 50.4474C198.755 47.4378 194.962 42.1254 194.962 42.1254Z" fill="#263238"/>
<path d="M184.151 46.107C182.347 48.4308 183.144 51.0684 184.735 52.0848C188.605 54.5574 194.203 44.1942 192.747 42.9522C191.292 41.7096 185.956 43.7832 184.151 46.107Z" fill="#263238"/>
<path d="M200.407 40.5738C197.862 39.5472 195.285 40.6194 194.478 42.1698C192.516 45.9426 201.426 52.7424 204.006 48.024C205.539 45.2226 203.032 41.6316 200.407 40.5738Z" fill="#407BFF"/>
<path d="M199.32 52.101C199.504 57.4824 199.697 59.7564 197.258 62.7612C193.59 67.281 186.94 66.3306 185.152 61.113C183.542 56.4162 183.511 48.405 188.543 45.774C193.502 43.1814 199.136 46.7196 199.32 52.101Z" fill="#FFC3BD"/>
<path d="M198.521 54.9402C196.14 54.0486 195.518 51.2442 195.91 50.1666C194.72 50.1168 192.084 49.6878 191.098 48.1974C189.226 49.3746 185.272 50.5938 184.842 48.603C184.411 46.6122 190.384 41.466 194.895 41.0718C200.257 40.6032 205.552 45.8778 204.185 50.9196C202.817 55.9614 198.521 54.9402 198.521 54.9402Z" fill="#263238"/>
<path d="M183.109 105.035C183.109 105.035 178.83 146.828 179.185 163.373C179.554 180.583 185.861 219.832 185.861 219.832H193.197C193.197 219.832 192.036 181.588 192.685 164.687C193.392 146.261 199.245 105.035 199.245 105.035H183.109V105.035Z" fill="#263238"/>
<path d="M193.833 220.094H185.226L184.594 217.349L194.233 217.013L193.833 220.094Z" fill="#407BFF"/>
<path opacity="0.2" d="M192.613 115.434C187.201 126.321 191.527 146.182 193.441 153.571C194.422 142.474 196.076 128.908 197.366 118.946C196.546 113.309 195.109 110.414 192.613 115.434Z" fill="black"/>
<path d="M188.928 105.035C188.928 105.035 193.919 148.484 197.689 162.434C202.164 178.995 229.962 201.283 229.962 201.283L235.601 196.493C235.601 196.493 215.453 172.282 212.031 163.557C204.728 144.936 210.979 117.186 205.143 105.035H188.928Z" fill="#263238"/>
<path d="M236.501 196.235L229.506 202.177L226.893 200.611L234.806 193.25L236.501 196.235Z" fill="#407BFF"/>
<path d="M191.349 54.3738C191.391 54.8094 191.194 55.185 190.909 55.212C190.625 55.239 190.36 54.9084 190.318 54.4728C190.276 54.0372 190.474 53.6616 190.758 53.6346C191.043 53.6076 191.307 53.9382 191.349 54.3738Z" fill="#263238"/>
<path d="M186.425 54.846C186.467 55.2816 186.269 55.6566 185.985 55.6842C185.7 55.7118 185.435 55.3806 185.394 54.945C185.352 54.5094 185.549 54.1338 185.834 54.1068C186.118 54.0798 186.383 54.4104 186.425 54.846Z" fill="#263238"/>
<path d="M185.962 54.1188L184.886 53.9178C184.886 53.9178 185.502 54.6834 185.962 54.1188Z" fill="#263238"/>
<path d="M187.798 55.47C187.798 55.47 187.239 57.4164 186.512 58.3992C187.138 58.881 188.093 58.542 188.093 58.542L187.798 55.47Z" fill="#ED847E"/>
<path d="M190.514 59.9772C190.292 60.039 190.051 60.0852 189.79 60.1104C189.719 60.117 189.656 60.0654 189.649 59.9946C189.643 59.9244 189.692 59.862 189.765 59.8542C191.675 59.6724 192.442 58.2504 192.449 58.236C192.482 58.173 192.56 58.1484 192.623 58.1814C192.686 58.2144 192.71 58.2918 192.677 58.3548C192.649 58.41 192.032 59.5554 190.514 59.9772Z" fill="#263238"/>
<path d="M200.591 55.8438C200.462 56.9526 199.832 57.8982 199.104 58.4562C198.008 59.295 196.949 58.4388 196.826 57.1368C196.715 55.965 197.152 54.117 198.457 53.7894C199.744 53.466 200.738 54.576 200.591 55.8438Z" fill="#FFC3BD"/>
<path d="M191.876 51.2867C191.81 51.3047 191.738 51.2969 191.675 51.2597C190.692 50.6699 189.837 51.0731 189.827 51.0779C189.701 51.1379 189.546 51.0869 189.484 50.9591C189.422 50.8313 189.475 50.6777 189.602 50.6153C189.647 50.5937 190.72 50.0867 191.939 50.8187C192.061 50.8919 192.1 51.0497 192.028 51.1715C191.992 51.2303 191.937 51.2699 191.876 51.2867Z" fill="#263238"/>
<path d="M184.016 52.7831C183.954 52.8005 183.886 52.7945 183.826 52.7621C183.701 52.6949 183.654 52.5389 183.72 52.4141C184.392 51.1613 185.572 51.0455 185.623 51.0413C185.764 51.0293 185.889 51.1337 185.901 51.2753C185.913 51.4163 185.808 51.5405 185.667 51.5537C185.621 51.5573 184.707 51.6605 184.173 52.6571C184.14 52.7213 184.081 52.7651 184.016 52.7831Z" fill="#263238"/>
<path d="M211.299 77.9856C212.546 81.0222 213.568 84.0234 214.459 87.1422C215.336 90.2556 216.1 93.4158 216.449 96.7656C216.553 97.5936 216.581 98.4606 216.622 99.3162L216.625 99.3966V99.5304L216.618 99.807C216.605 99.981 216.59 100.158 216.563 100.316C216.514 100.643 216.441 100.931 216.36 101.205C216.196 101.748 215.989 102.216 215.77 102.649C214.883 104.355 213.826 105.65 212.729 106.904C210.505 109.363 208.136 111.494 205.548 113.458L203.79 111.533C205.79 109.202 207.808 106.805 209.514 104.356C210.353 103.141 211.161 101.874 211.616 100.731C211.726 100.451 211.807 100.184 211.853 99.9702C211.874 99.8652 211.888 99.7698 211.886 99.7062C211.89 99.6696 211.884 99.6498 211.884 99.6282C211.883 99.6186 211.879 99.6162 211.878 99.6102L211.869 99.5304C211.791 98.8188 211.734 98.1156 211.6 97.3884C211.15 94.4976 210.329 91.5498 209.449 88.632C208.531 85.7304 207.506 82.7802 206.426 79.9764L211.299 77.9856Z" fill="#FFC3BD"/>
<path d="M209.05 72.1326C211.257 72.804 213.908 80.4054 213.908 80.4054L205.343 86.529C205.343 86.529 202.22 80.1834 203.147 77.3298C204.114 74.3586 206.53 71.367 209.05 72.1326Z" fill="#407BFF"/>
<path opacity="0.4" d="M209.05 72.1326C211.257 72.804 213.908 80.4054 213.908 80.4054L205.343 86.529C205.343 86.529 202.22 80.1834 203.147 77.3298C204.114 74.3586 206.53 71.367 209.05 72.1326Z" fill="black"/>
<path d="M233.739 207.679C233.527 207.679 233.334 207.581 233.165 207.386C233.022 207.22 233.03 207.061 233.062 206.956C233.262 206.293 235.147 205.751 235.361 205.692C235.409 205.678 235.463 205.695 235.495 205.735C235.527 205.775 235.533 205.831 235.509 205.876C235.172 206.514 234.505 207.597 233.819 207.675C233.792 207.678 233.766 207.679 233.739 207.679ZM235.132 206.029C234.384 206.267 233.413 206.681 233.308 207.03C233.295 207.074 233.289 207.135 233.36 207.218C233.493 207.371 233.635 207.437 233.791 207.419C234.16 207.377 234.652 206.864 235.132 206.029Z" fill="#407BFF"/>
<path d="M234.536 206.051C233.91 206.051 233.207 205.925 232.966 205.612C232.894 205.517 232.799 205.318 232.981 205.05C233.096 204.88 233.26 204.78 233.468 204.753C234.246 204.654 235.43 205.675 235.48 205.718C235.514 205.748 235.531 205.795 235.522 205.84C235.513 205.885 235.481 205.921 235.438 205.937C235.232 206.009 234.897 206.051 234.536 206.051ZM233.582 205.003C233.554 205.003 233.527 205.005 233.5 205.009C233.367 205.026 233.266 205.087 233.193 205.195C233.1 205.331 233.132 205.406 233.17 205.455C233.402 205.756 234.469 205.871 235.118 205.754C234.73 205.453 234.05 205.003 233.582 205.003Z" fill="#407BFF"/>
<path d="M184.966 227.491C184.426 227.491 183.929 227.407 183.65 227.156C183.473 226.997 183.395 226.787 183.418 226.531C183.431 226.378 183.506 226.259 183.635 226.189C184.3 225.824 186.463 226.929 186.707 227.056C186.756 227.081 186.783 227.134 186.775 227.188C186.767 227.242 186.727 227.285 186.673 227.296C186.212 227.388 185.563 227.491 184.966 227.491ZM183.999 226.368C183.899 226.368 183.818 226.382 183.759 226.415C183.706 226.444 183.68 226.487 183.674 226.554C183.658 226.727 183.707 226.862 183.822 226.966C184.151 227.262 185.044 227.314 186.246 227.114C185.501 226.756 184.513 226.368 183.999 226.368Z" fill="#407BFF"/>
<path d="M186.648 227.299C186.63 227.299 186.612 227.295 186.595 227.287C185.948 226.995 184.669 225.825 184.769 225.211C184.793 225.065 184.896 224.884 185.252 224.848C185.517 224.824 185.755 224.896 185.963 225.07C186.645 225.638 186.77 227.098 186.776 227.16C186.779 227.206 186.759 227.249 186.722 227.275C186.7 227.291 186.674 227.299 186.648 227.299ZM185.356 225.1C185.33 225.1 185.304 225.101 185.278 225.104C185.044 225.128 185.028 225.221 185.023 225.252C184.963 225.621 185.831 226.541 186.49 226.941C186.427 226.516 186.247 225.64 185.799 225.268C185.665 225.155 185.519 225.1 185.356 225.1Z" fill="#407BFF"/>
<path d="M205.474 103.742L206.037 105.715C206.114 105.868 205.933 106.024 205.678 106.024H183C182.801 106.024 182.637 105.926 182.624 105.802L182.426 103.829C182.412 103.693 182.584 103.577 182.801 103.577H205.115C205.279 103.577 205.424 103.643 205.474 103.742Z" fill="#407BFF"/>
<path opacity="0.3" d="M205.474 103.742L206.037 105.715C206.114 105.868 205.933 106.024 205.678 106.024H183C182.801 106.024 182.637 105.926 182.624 105.802L182.426 103.829C182.412 103.693 182.584 103.577 182.801 103.577H205.115C205.279 103.577 205.424 103.643 205.474 103.742Z" fill="white"/>
<path d="M202.477 106.237H203.074C203.193 106.237 203.284 106.176 203.276 106.101L202.996 103.538C202.987 103.463 202.884 103.402 202.765 103.402H202.167C202.048 103.402 201.958 103.463 201.966 103.538L202.246 106.101C202.254 106.176 202.358 106.237 202.477 106.237Z" fill="#263238"/>
<path d="M184.679 106.237H185.277C185.396 106.237 185.486 106.176 185.479 106.101L185.198 103.538C185.19 103.463 185.086 103.402 184.967 103.402H184.37C184.251 103.402 184.16 103.463 184.168 103.538L184.448 106.101C184.456 106.176 184.561 106.237 184.679 106.237Z" fill="#263238"/>
<path d="M193.578 106.237H194.176C194.294 106.237 194.386 106.176 194.377 106.101L194.097 103.538C194.089 103.463 193.985 103.402 193.866 103.402H193.268C193.15 103.402 193.059 103.463 193.067 103.538L193.347 106.101C193.355 106.176 193.459 106.237 193.578 106.237Z" fill="#263238"/>
<path d="M190.886 53.6465L189.811 53.4449C189.811 53.4449 190.426 54.2112 190.886 53.6465Z" fill="#263238"/>
<path opacity="0.2" d="M171.024 130.054C142.642 141.084 110.686 127.021 99.6541 98.6322C88.6219 70.2438 102.694 38.292 131.076 27.2622C159.465 16.2294 191.42 30.2934 202.453 58.6818C213.485 87.0702 199.412 119.021 171.024 130.054Z" fill="#407BFF"/>
<path opacity="0.1" d="M161.045 24.4248L117.799 122.65C117.13 122.145 116.474 121.623 115.827 121.091C111.703 117.68 108.056 113.644 105.03 109.042L105.028 109.037L142.38 24.198C148.665 23.1864 154.973 23.2998 161.045 24.4248Z" fill="white"/>
<path opacity="0.1" d="M191.789 41.4684L151.129 133.811C142.61 133.825 134.278 131.849 126.769 128.161L171.167 27.3192C178.957 30.366 186.042 35.1786 191.789 41.4684Z" fill="white"/>
<path d="M105.663 41.508C126.178 16.44 163.133 12.7488 188.201 33.2634C213.269 53.778 216.961 90.7338 196.446 115.802C175.928 140.874 138.972 144.565 113.904 124.051C88.8361 103.535 85.1449 66.5802 105.663 41.508ZM192.736 112.765C211.572 89.748 208.187 55.8144 185.165 36.9738C162.143 18.1332 128.211 21.5274 109.375 44.544C90.5341 67.566 93.9187 101.5 116.941 120.34C139.963 139.181 173.895 135.787 192.736 112.765Z" fill="#407BFF"/>
<path d="M197.91 112.56C203.687 116.01 209.183 119.804 214.584 123.714C219.983 127.626 225.247 131.704 230.428 135.883C235.61 140.06 240.685 144.368 245.587 148.886C248.044 151.14 250.445 153.46 252.803 155.833C255.154 158.216 257.47 160.641 259.645 163.237C260.844 164.668 260.656 166.798 259.226 167.997C258.133 168.913 256.623 169.015 255.44 168.375C252.465 166.756 249.63 164.966 246.829 163.133C244.036 161.291 241.287 159.395 238.593 157.433C233.193 153.521 227.966 149.399 222.847 145.145C217.726 140.893 212.687 136.541 207.785 132.022C202.884 127.501 198.078 122.864 193.553 117.883C192.262 116.462 192.368 114.263 193.789 112.972C194.95 111.919 196.631 111.798 197.91 112.56Z" fill="#407BFF"/>
<path d="M204.365 110.927L198.571 111.809L202.72 115.445C202.72 115.445 205.995 114.257 206.318 112.024L204.365 110.927Z" fill="#FFC3BD"/>
<path d="M195.442 115.128L199.081 117.984L203.527 115.082L198.571 111.809L195.442 115.128Z" fill="#FFC3BD"/>
<path d="M168.037 121.447C169.074 118.523 171.988 116.45 175.062 116.45H223.092C226.736 116.45 229.347 119.333 228.923 122.89L216.519 227.02C216.096 230.577 212.798 233.46 209.154 233.46H56.7397C53.0953 233.46 50.4847 230.577 50.9083 227.02L61.3273 139.555C61.7509 135.998 65.0485 133.115 68.6929 133.115H151.629C158.809 133.115 165.614 128.276 168.037 121.447Z" fill="#407BFF"/>
<path d="M53.6743 228.666H212.916L221.989 121.517H62.7481L53.6743 228.666Z" fill="#F0F0F0"/>
<path d="M53.6743 228.666H212.915L219.481 121.517H62.7481L53.6743 228.666Z" fill="#E0E0E0"/>
<path d="M53.6743 228.666H212.915L218.389 118.117H59.1481L53.6743 228.666Z" fill="#F0F0F0"/>
<path d="M53.6743 228.666H212.915L215.082 118.117H59.1481L53.6743 228.666Z" fill="#E0E0E0"/>
<path d="M53.6743 228.666H212.916L213.864 115.117H54.6229L53.6743 228.666Z" fill="#F0F0F0"/>
<path d="M53.6744 228.666H212.916L209.648 117.267H51.4316L53.6744 228.666Z" fill="#E0E0E0"/>
<path d="M53.6744 228.666H212.916L208.189 118.117H48.9482L53.6744 228.666Z" fill="#F0F0F0"/>
<path d="M53.6743 228.666H212.916L205.389 119.784H46.1479L53.6743 228.666Z" fill="#E0E0E0"/>
<path d="M53.6744 228.666H212.916L204.189 120.717H44.948L53.6744 228.666Z" fill="#F0F0F0"/>
<path d="M133.417 128.208C133.522 125.212 135.774 123.089 138.848 123.089H186.877C190.522 123.089 194.053 126.043 194.764 129.687L213.739 226.861C214.45 230.506 212.073 233.459 208.429 233.459H56.0149C52.3705 233.459 48.8395 230.505 48.1279 226.861L32.4877 146.762C31.7761 143.117 34.1533 140.164 37.7977 140.164H120.733C127.913 140.164 133.174 135.205 133.417 128.208Z" fill="#407BFF"/>
<path opacity="0.2" d="M133.417 128.208C133.522 125.212 135.774 123.089 138.848 123.089H186.877C190.522 123.089 194.053 126.043 194.764 129.687L213.739 226.861C214.45 230.506 212.073 233.459 208.429 233.459H56.0149C52.3705 233.459 48.8395 230.505 48.1279 226.861L32.4877 146.762C31.7761 143.117 34.1533 140.164 37.7977 140.164H120.733C127.913 140.164 133.174 135.205 133.417 128.208Z" fill="black"/>
</svg>
