<svg width="225" height="208" viewBox="0 0 225 208" fill="none" xmlns="http://www.w3.org/2000/svg">
<g clip-path="url(#clip0_209_142)">
<path fill-rule="evenodd" clip-rule="evenodd" d="M0.0953369 60.1319C0.0953369 67.7274 1.67773 72.7911 6.74139 77.8547C14.9698 86.0832 27.3125 87.0326 37.1234 80.703L43.4529 75.3229C44.0859 74.6899 44.7188 74.057 45.3518 73.424C54.8462 63.9297 73.2019 54.7518 85.5446 51.2705C104.217 46.2069 120.041 46.2069 138.713 51.2705C151.056 54.7518 169.411 63.9297 178.906 73.424C179.855 74.057 180.172 74.6899 180.805 75.3229L187.134 80.703C196.945 87.0326 209.288 86.0832 217.516 77.8547C222.58 72.7911 224.162 67.7274 224.162 60.1319C224.162 49.0552 214.035 40.8267 206.123 34.1807C184.286 16.4579 158.335 5.3811 130.485 1.26687C117.825 -0.31552 106.749 -0.31552 93.773 1.26687C65.9229 5.3811 39.9717 16.4579 18.1346 34.1807C10.2227 40.8267 0.0953369 49.0552 0.0953369 60.1319ZM112.129 127.858C128.269 127.858 141.561 141.15 141.561 157.291C141.561 173.431 128.269 186.407 112.129 186.407C95.9884 186.407 82.6963 173.431 82.6963 157.291C82.6963 141.15 95.9884 127.858 112.129 127.858ZM178.906 106.338C178.906 131.973 154.853 135.454 135.232 120.896C120.041 109.186 104.217 109.186 89.0259 120.896C69.4042 135.454 45.6683 131.973 45.6683 106.338C45.6683 100.325 47.8836 95.894 51.0484 91.7798L57.6945 85.1337C92.1907 57.6001 132.383 57.6001 166.563 85.1337L173.209 91.7798C176.69 95.894 178.906 100.325 178.906 106.338Z" fill="#3960C5"/>
<path d="M187.134 207.295C206.36 207.295 221.946 191.709 221.946 172.483C221.946 153.256 206.36 137.67 187.134 137.67C167.907 137.67 152.321 153.256 152.321 172.483C152.321 191.709 167.907 207.295 187.134 207.295Z" fill="#FFD202"/>
<path fill-rule="evenodd" clip-rule="evenodd" d="M187.134 137.67C188.717 137.67 190.299 137.67 192.198 137.986C175.108 140.518 162.132 155.076 162.132 172.483C162.132 190.205 175.108 204.763 192.198 206.979C190.299 207.295 188.717 207.612 187.134 207.612C167.829 207.612 152.005 191.788 152.005 172.483C152.005 153.177 167.829 137.67 187.134 137.67Z" fill="#F0C400"/>
<path fill-rule="evenodd" clip-rule="evenodd" d="M0.0953369 60.1315C0.0953369 67.7269 1.67773 72.7906 6.74139 77.8543C13.071 84.1838 21.9324 86.3992 30.1608 83.8674C26.6796 82.6014 23.5148 80.7026 20.6665 77.8543C15.6028 72.7906 13.7039 67.7269 13.7039 60.1315C13.7039 49.0547 23.8312 40.8262 32.0597 34.1802C53.5802 16.4574 79.5315 5.38063 107.382 1.2664C111.496 0.633446 115.294 0.316967 119.091 0.316967C110.546 -0.31599 102.634 0.000488281 93.773 1.2664C65.9229 5.38063 39.9717 16.4574 18.1346 34.1802C10.2227 40.8262 0.0953369 49.0547 0.0953369 60.1315ZM112.129 127.858C114.661 127.858 116.876 128.174 119.091 128.807C106.116 131.972 96.6214 143.365 96.6214 157.29C96.6214 170.899 106.116 182.609 119.091 185.774C116.876 186.406 114.661 186.406 112.129 186.406C95.9884 186.406 82.6963 173.431 82.6963 157.29C82.6963 141.15 95.9884 127.858 112.129 127.858ZM73.2019 128.491C58.3274 132.289 45.6683 125.326 45.6683 106.337C45.6683 100.324 47.8836 95.8936 51.0484 91.7793L57.6945 85.1333C76.9997 69.6258 98.2038 62.9798 119.091 64.8786C102.634 66.1445 86.494 73.1071 71.6195 85.1333L64.657 91.7793C61.4922 95.8936 59.2769 100.324 59.2769 106.337C59.2769 118.996 64.9735 126.276 73.2019 128.491Z" fill="#264EB3"/>
<path fill-rule="evenodd" clip-rule="evenodd" d="M177.64 156.34L187.134 165.834L196.312 156.34C198.211 154.441 201.375 154.441 203.274 156.34C205.173 158.239 205.173 161.403 203.274 163.302L193.78 172.48L203.274 181.974C205.173 183.873 205.173 186.722 203.274 188.621C201.375 190.519 198.211 190.519 196.312 188.621L187.134 179.443L177.64 188.621C175.741 190.519 172.892 190.519 170.993 188.621C169.095 186.722 169.095 183.873 170.993 181.974L180.171 172.48L170.993 163.302C169.095 161.403 169.095 158.239 170.993 156.34C172.892 154.441 175.741 154.441 177.64 156.34Z" fill="#4D4D4D"/>
</g>
<defs>
<clipPath id="clip0_209_142">
<rect width="224.256" height="207.61" fill="white"/>
</clipPath>
</defs>
</svg>
