<svg width="270" height="162" viewBox="0 0 270 162" fill="none" xmlns="http://www.w3.org/2000/svg">
<circle opacity="0.5" cx="135.54" cy="75.6" r="73.44" stroke="#B40A4E" stroke-width="4.32"/>
<circle cx="135.54" cy="75.6" r="52.9332" fill="#FEF2F2" stroke="#B40A4E" stroke-width="1.08"/>
<path d="M131.631 78.3835L133.62 76.3948L131.631 74.406L116.376 59.1505C116.143 58.8874 116.017 58.5461 116.023 58.1939C116.03 57.8296 116.177 57.482 116.435 57.2244C116.692 56.9667 117.04 56.8191 117.404 56.8127C117.757 56.8065 118.098 56.9327 118.361 57.1655L133.616 72.421L135.605 74.4097L137.594 72.421L152.849 57.1655C153.113 56.9327 153.454 56.8065 153.806 56.8127C154.17 56.8191 154.518 56.9667 154.776 57.2244C155.033 57.482 155.181 57.8296 155.187 58.1939C155.193 58.5461 155.067 58.8874 154.835 59.1505L139.579 74.406L137.59 76.3948L139.579 78.3835L154.879 93.6835L154.914 93.7186L154.95 93.7524C155.089 93.8812 155.199 94.0364 155.276 94.2089C155.353 94.3814 155.394 94.5676 155.398 94.7564C155.401 94.9453 155.366 95.1328 155.296 95.3079C155.225 95.483 155.12 95.6421 154.986 95.7756C154.853 95.9092 154.693 96.0144 154.518 96.0851L155.572 98.693L154.518 96.0852C154.343 96.1559 154.156 96.1906 153.967 96.1873C153.778 96.1839 153.592 96.1426 153.419 96.0658C153.247 95.9889 153.092 95.8781 152.963 95.7399L152.929 95.7036L152.894 95.6685L137.594 80.3685L135.605 78.3798L133.616 80.3685L118.316 95.6685L118.281 95.7036L118.248 95.7399C118.119 95.8781 117.964 95.9889 117.791 96.0658C117.619 96.1426 117.432 96.1839 117.244 96.1873C117.055 96.1906 116.867 96.1559 116.692 96.0852L115.639 98.693L116.692 96.0851C116.517 96.0144 116.358 95.9092 116.224 95.7756C116.091 95.6421 115.986 95.483 115.915 95.3079L113.307 96.3613L115.915 95.3079C115.844 95.1328 115.809 94.9453 115.813 94.7564C115.816 94.5676 115.857 94.3814 115.934 94.2089C116.011 94.0364 116.122 93.8812 116.26 93.7524L116.296 93.7186L116.331 93.6835L131.631 78.3835Z" fill="black" stroke="#B40A4E" stroke-width="5.625"/>
<path d="M255.442 108.857C255.677 107.705 257.323 107.705 257.558 108.857L258.556 113.742C258.643 114.166 258.974 114.497 259.398 114.584L264.283 115.582C265.435 115.817 265.435 117.463 264.283 117.698L259.398 118.697C258.974 118.783 258.643 119.115 258.556 119.538L257.558 124.423C257.323 125.575 255.677 125.575 255.442 124.423L254.443 119.538C254.357 119.115 254.025 118.783 253.602 118.697L248.717 117.698C247.565 117.463 247.565 115.817 248.717 115.582L253.602 114.584C254.025 114.497 254.357 114.166 254.443 113.742L255.442 108.857Z" fill="#B40A4E"/>
<path opacity="0.2" d="M36.2021 145.577C36.4375 144.425 38.0829 144.425 38.3183 145.577L38.9502 148.668C39.0368 149.092 39.3681 149.423 39.792 149.51L42.8833 150.142C44.0349 150.377 44.0349 152.023 42.8833 152.258L39.792 152.89C39.3681 152.977 39.0368 153.308 38.9502 153.732L38.3183 156.823C38.0829 157.975 36.4375 157.975 36.2021 156.823L35.5703 153.732C35.4836 153.308 35.1523 152.977 34.7284 152.89L31.6371 152.258C30.4855 152.023 30.4855 150.377 31.6371 150.142L34.7284 149.51C35.1523 149.423 35.4836 149.092 35.5703 148.668L36.2021 145.577Z" fill="#0068D6"/>
<path opacity="0.2" d="M232.762 18.1369C232.997 16.9853 234.643 16.9853 234.878 18.1369L235.51 21.2282C235.596 21.6521 235.928 21.9834 236.352 22.07L239.443 22.7018C240.594 22.9372 240.594 24.5827 239.443 24.8181L236.352 25.4499C235.928 25.5366 235.596 25.8678 235.51 26.2918L234.878 29.383C234.643 30.5347 232.997 30.5347 232.762 29.383L232.13 26.2918C232.043 25.8679 231.712 25.5366 231.288 25.4499L228.197 24.8181C227.045 24.5827 227.045 22.9372 228.197 22.7018L231.288 22.07C231.712 21.9834 232.043 21.6521 232.13 21.2282L232.762 18.1369Z" fill="#0068D6"/>
<path d="M16.7619 20.2969C16.9973 19.1453 18.6428 19.1453 18.8782 20.2969L20.6097 28.7685C20.6963 29.1924 21.0276 29.5237 21.4515 29.6103L29.9231 31.3419C31.0747 31.5773 31.0747 33.2227 29.9231 33.4581L21.4515 35.1896C21.0276 35.2763 20.6963 35.6076 20.6097 36.0315L18.8782 44.5031C18.6428 45.6547 16.9973 45.6547 16.7619 44.5031L15.0304 36.0315C14.9437 35.6076 14.6125 35.2763 14.1885 35.1896L5.71697 33.4581C4.56534 33.2227 4.56533 31.5773 5.71697 31.3419L14.1885 29.6103C14.6125 29.5237 14.9437 29.1924 15.0304 28.7685L16.7619 20.2969Z" fill="#B40A4E"/>
</svg>
