<svg width="500" height="500" viewBox="0 0 500 500" fill="none" xmlns="http://www.w3.org/2000/svg">
    <g clip-path="url(#clip0_1450_491)">
        <path
            d="M435.115 411.319C426.791 420.083 418.914 425.735 412.691 430.2C339.54 482.686 252.983 467.387 234.588 463.65C207.423 458.133 154.914 447.468 116.951 402.824C59.5159 335.282 68.4594 228.871 113.01 158.628C121.159 145.779 164.204 74.4657 251.693 63.0292C304.641 56.1081 366.361 70.0673 411.056 107.513C504.877 186.116 498.198 344.908 435.115 411.319Z"
            fill="url(#paint0_linear_1450_491)" />
        <path
            d="M223.373 307.528C215.763 284.055 201.211 265.382 184.045 254.438C168.7 244.655 157.592 229.369 153.402 211.679C152.962 209.819 152.44 207.954 151.836 206.091C142.684 177.861 117.967 160.584 96.6308 167.502C75.2942 174.42 65.4169 202.912 74.5694 231.142C76.4409 236.914 78.9635 242.227 81.9749 246.969C91.5858 262.1 95.4259 280.279 92.0385 297.889C89.0113 313.627 89.9741 331.33 95.6795 348.928C104.189 375.174 121.378 395.421 141.195 405.57C148.69 409.409 155.46 414.584 161.079 420.848C170.417 431.256 183.514 436.115 195.492 432.231C208.415 428.041 216.42 414.851 216.904 399.495C217.177 390.805 219.158 382.282 222.424 374.218C230.135 355.181 231.067 331.259 223.373 307.528Z"
            fill="#91B3FA" />
        <path
            d="M113.839 195.111C122.675 212.864 130.934 230.887 139.004 248.996C141.024 253.522 142.97 258.081 144.931 262.633L147.872 269.461L150.756 276.314C152.661 280.89 154.629 285.44 156.482 290.038L162.041 303.83C165.63 313.072 169.298 322.284 172.714 331.593C174.429 336.244 176.235 340.862 177.856 345.549L182.781 359.584C189.159 378.362 195.068 397.309 200.007 416.518L199.181 416.739L194.939 402.508L193.886 398.949L192.745 395.416L190.449 388.356L188.167 381.293C187.41 378.937 186.566 376.609 185.77 374.266C184.147 369.591 182.561 364.903 180.908 360.238C174.173 341.621 167.192 323.094 159.829 304.712C156.077 295.55 152.404 286.356 148.588 277.219L145.746 270.359L142.845 263.523C140.915 258.964 138.983 254.405 137.007 249.865C133.13 240.753 129.189 231.668 125.173 222.615C121.204 213.542 117.149 204.503 113.068 195.481L113.839 195.111Z"
            fill="#BDD0FB" />
        <g opacity="0.5">
            <path
                d="M94.2264 251.247C94.0191 251.231 93.8204 251.126 93.6921 250.942C78.3255 228.963 78.5213 211.172 81.391 200.118C84.5089 188.109 91.1874 181.419 91.4703 181.14C91.7533 180.86 92.2084 180.864 92.4881 181.147C92.7674 181.43 92.7647 181.886 92.4819 182.165C92.4151 182.231 85.7695 188.904 82.7659 200.554C79.9947 211.302 79.8456 228.624 94.8722 250.117C95.1002 250.443 95.0207 250.892 94.6949 251.12C94.5526 251.219 94.387 251.26 94.2264 251.247Z"
                fill="#BDD0FB" />
        </g>
        <path
            d="M154.735 353.612C148.232 341.363 138.364 332.443 127.81 328.053C118.376 324.129 110.742 316.749 106.694 307.367C106.268 306.381 105.798 305.4 105.281 304.427C97.4591 289.696 82.1142 282.534 71.0071 288.432C59.9 294.329 57.237 311.053 65.0589 325.784C66.6583 328.796 68.5724 331.491 70.7005 333.822C77.492 341.262 81.3947 350.948 81.2497 361.02C81.1201 370.022 83.3869 379.723 88.2629 388.907C95.5353 402.603 107.014 412.138 118.954 415.831C123.471 417.228 127.717 419.434 131.435 422.355C137.612 427.208 145.322 428.626 151.558 425.315C158.285 421.743 161.414 413.668 160.176 405.124C159.475 400.29 159.734 395.382 160.748 390.603C163.141 379.322 161.311 365.996 154.735 353.612Z"
            fill="#BDD0FB" />
        <path opacity="0.57"
            d="M83.2174 302.039C89.838 311.005 96.166 320.175 102.398 329.412C103.957 331.721 105.479 334.054 107.009 336.382L109.302 339.875L111.567 343.387C113.067 345.734 114.6 348.061 116.074 350.425L120.497 357.517C123.385 362.282 126.314 367.023 129.113 371.842C130.516 374.25 131.966 376.629 133.321 379.065L137.417 386.353C142.78 396.124 147.901 406.034 152.511 416.183L152.077 416.386L148.339 408.923L147.409 407.056L146.432 405.212L144.472 401.529L142.519 397.842C141.87 396.612 141.176 395.406 140.507 394.187C139.152 391.757 137.817 389.317 136.446 386.897C130.902 377.249 125.23 367.675 119.361 358.219C116.391 353.514 113.461 348.783 110.458 344.098L108.216 340.578L105.944 337.077C104.431 334.742 102.917 332.407 101.38 330.087C98.3463 325.421 95.2787 320.777 92.1732 316.157C89.0921 311.522 85.9666 306.914 82.8281 302.318L83.2174 302.039Z"
            fill="white" />
        <g opacity="0.5">
            <path
                d="M81.0336 334.283C80.9104 334.301 80.7802 334.266 80.6806 334.176C68.7438 323.422 66.456 313.012 66.6387 306.172C66.8371 298.741 69.8321 293.935 69.9596 293.734C70.087 293.532 70.353 293.473 70.5545 293.6C70.7557 293.728 70.8156 293.994 70.6883 294.195C70.6582 294.243 67.6803 299.035 67.5 306.241C67.3336 312.888 69.5853 323.019 81.2579 333.535C81.4349 333.695 81.4492 333.968 81.2898 334.145C81.2202 334.222 81.129 334.268 81.0336 334.283Z"
                fill="white" />
        </g>
        <path
            d="M324.296 273.671C329.373 249.501 341.87 229.369 357.79 216.651C372.022 205.283 381.452 188.888 383.741 170.835C383.981 168.938 384.302 167.026 384.705 165.107C390.811 136.038 413.573 116.215 435.544 120.83C457.515 125.446 470.376 152.753 464.269 181.822C463.021 187.766 461.075 193.322 458.582 198.361C450.626 214.443 448.738 232.944 453.982 250.11C458.669 265.452 459.594 283.173 455.787 301.294C450.109 328.321 435.155 350.3 416.512 362.508C409.46 367.126 403.273 372.997 398.346 379.828C390.16 391.181 377.642 397.409 365.307 394.818C352 392.022 342.63 379.746 340.516 364.514C339.319 355.895 336.441 347.622 332.333 339.944C322.634 321.818 319.162 298.109 324.296 273.671Z"
            fill="#91B3FA" />
        <path
            d="M421.353 150.138C414.447 168.746 408.145 187.562 402.039 206.443C400.51 211.163 399.057 215.907 397.59 220.646L395.389 227.754L393.248 234.881C391.839 239.638 390.364 244.376 389.009 249.149L384.943 263.468C382.354 273.048 379.683 282.605 377.273 292.234C376.061 297.046 374.755 301.833 373.641 306.67L370.231 321.162C365.881 340.53 362.015 360.015 359.143 379.659L359.988 379.791L362.697 365.176L363.366 361.522L364.126 357.884L365.66 350.613L367.18 343.341C367.682 340.916 368.275 338.509 368.818 336.093C369.936 331.267 371.016 326.433 372.165 321.614C376.888 302.37 381.866 283.187 387.239 264.11C389.998 254.592 392.676 245.052 395.502 235.552L397.601 228.422L399.761 221.31C401.197 216.567 402.635 211.824 404.119 207.096C407.008 197.615 409.965 188.153 412.999 178.717C415.983 169.264 419.058 159.837 422.16 150.424L421.353 150.138Z"
            fill="#BDD0FB" />
        <path
            d="M446.844 203.922C447.048 203.884 447.235 203.758 447.343 203.561C460.299 180.052 458.212 162.367 454.18 151.67C449.8 140.049 442.441 134.102 442.13 133.854C441.819 133.606 441.366 133.658 441.118 133.969C440.87 134.28 440.921 134.734 441.232 134.982C441.306 135.04 448.63 140.975 452.858 152.25C456.759 162.652 458.75 179.876 446.081 202.865C445.888 203.214 446.015 203.653 446.364 203.844C446.516 203.928 446.685 203.951 446.844 203.922Z"
            fill="#BDD0FB" />
        <path
            d="M380.764 352.906C388.258 339.846 399.283 330.518 410.892 326.131C421.269 322.209 429.815 314.472 434.542 304.436C435.039 303.381 435.585 302.333 436.18 301.297C445.192 285.59 462.098 278.366 473.941 285.161C485.783 291.956 488.077 310.197 479.065 325.904C477.222 329.115 475.049 331.972 472.656 334.425C465.022 342.257 460.442 352.628 460.241 363.563C460.061 373.335 457.255 383.781 451.637 393.573C443.258 408.176 430.463 418.113 417.375 421.695C412.424 423.05 407.737 425.293 403.6 428.33C396.723 433.376 388.307 434.64 381.658 430.825C374.486 426.709 371.378 417.835 373.026 408.609C373.958 403.388 373.853 398.053 372.923 392.831C370.728 380.505 373.188 366.11 380.764 352.906Z"
            fill="#BDD0FB" />
        <path opacity="0.57"
            d="M460.207 299.489C452.703 308.982 445.51 318.708 438.418 328.509C436.644 330.958 434.91 333.436 433.167 335.908L430.554 339.616L427.972 343.346C426.26 345.84 424.513 348.31 422.83 350.823L417.778 358.361C414.474 363.429 411.128 368.469 407.918 373.599C406.31 376.161 404.652 378.691 403.095 381.287L398.391 389.048C392.223 399.46 386.314 410.032 380.949 420.88L381.413 421.116L385.735 413.151L386.811 411.158L387.937 409.192L390.195 405.265L392.445 401.334C393.193 400.022 393.989 398.738 394.759 397.439C396.316 394.851 397.851 392.251 399.425 389.673C405.785 379.402 412.28 369.216 418.985 359.164C422.376 354.164 425.723 349.135 429.149 344.158L431.708 340.418L434.298 336.7C436.023 334.22 437.749 331.74 439.499 329.277C442.957 324.323 446.452 319.392 449.986 314.49C453.494 309.57 457.05 304.682 460.619 299.806L460.207 299.489Z"
            fill="white" />
        <path opacity="0.5"
            d="M461.428 334.556C461.561 334.58 461.704 334.547 461.815 334.454C475.151 323.209 478.004 311.994 478.05 304.565C478.099 296.495 475.02 291.173 474.889 290.951C474.758 290.727 474.472 290.653 474.248 290.785C474.026 290.916 473.951 291.202 474.082 291.425C474.113 291.478 477.174 296.784 477.113 304.61C477.056 311.828 474.252 322.742 461.211 333.737C461.014 333.904 460.988 334.2 461.155 334.397C461.228 334.484 461.325 334.537 461.428 334.556Z"
            fill="white" />
        <path
            d="M154.013 408.457C154.013 408.457 149.379 376.326 185.527 373.854C221.675 371.382 398.089 377.562 398.089 377.562C398.089 377.562 390.674 413.401 398.089 428.848C364.104 428.539 167.607 428.848 167.607 428.848C167.607 428.848 152.861 421.768 154.013 408.457Z"
            fill="#91B3FA" />
        <path
            d="M401.486 425.024C372.499 425.024 183.222 425.024 179.038 425.024C174.506 425.024 157.205 426.153 157.617 406.791C157.815 397.485 162.771 391.751 167.866 388.117C172.588 384.748 178.25 383.107 184.051 383.107C213.734 383.107 365.854 383.107 386.656 383.107C405.636 383.107 401.987 357.797 401.987 357.797L186.041 363.109C186.041 363.109 153.909 382.131 150.483 401.532C149.673 406.118 149.806 410.338 150.48 413.955C152.441 424.465 161.637 432.18 172.329 432.18H401.486C403.534 432.18 405.194 430.649 405.194 428.601C405.194 426.554 403.534 425.024 401.486 425.024Z"
            fill="url(#paint1_linear_1450_491)" />
        <path
            d="M388.399 97.3545H181.154V378.506H388.399C396.309 378.506 401.986 371.15 401.986 363.239V111.352C401.986 103.441 396.309 97.3545 388.399 97.3545Z"
            fill="url(#paint2_linear_1450_491)" />
        <path
            d="M181.511 97.0293C181.511 97.0293 148.144 103.676 150.615 129.395C153.087 155.113 150.484 401.494 150.484 401.494C150.484 401.494 160.502 377.562 181.511 377.562C181.511 324.421 181.511 97.0293 181.511 97.0293Z"
            fill="url(#paint3_linear_1450_491)" />
        <path opacity="0.6"
            d="M375.916 387.754C375.916 388.01 375.708 388.217 375.452 388.217H213.823C213.567 388.217 213.359 388.01 213.359 387.754V387.147C213.359 386.891 213.567 386.684 213.823 386.684H375.452C375.708 386.684 375.916 386.891 375.916 387.147V387.754Z"
            fill="white" />
        <path opacity="0.6"
            d="M379.494 403.68C379.494 403.936 379.057 404.577 378.76 404.577H190.678C190.381 404.577 189.334 403.936 189.334 403.68V402.995C189.334 402.739 190.381 403.043 190.678 403.043H378.76C379.057 403.043 379.494 402.739 379.494 402.995V403.68Z"
            fill="white" />
        <path opacity="0.6"
            d="M383.585 417.962C383.585 418.473 383.17 418.888 382.658 418.888H264.384C263.872 418.888 263.457 418.473 263.457 417.962V417.771C263.457 417.259 263.872 416.844 264.384 416.844H382.658C383.17 416.844 383.585 417.259 383.585 417.771V417.962Z"
            fill="white" />
        <path
            d="M188.826 347.575C188.421 347.575 188.314 347.247 188.314 346.842V243.547C188.314 243.142 188.421 242.814 188.826 242.814C189.23 242.814 189.337 243.142 189.337 243.547V346.842C189.337 347.247 189.23 347.575 188.826 347.575Z"
            fill="#91B3FA" />
        <path
            d="M188.826 228.162C188.421 228.162 188.314 227.834 188.314 227.429V177.613C188.314 177.208 188.421 176.881 188.826 176.881C189.23 176.881 189.337 177.209 189.337 177.613V227.429C189.337 227.834 189.23 228.162 188.826 228.162Z"
            fill="#91B3FA" />
        <path
            d="M188.826 134.39C188.421 134.39 188.314 134.062 188.314 133.657V105.818C188.314 105.414 188.421 105.086 188.826 105.086C189.23 105.086 189.337 105.414 189.337 105.818V133.657C189.337 134.062 189.23 134.39 188.826 134.39Z"
            fill="#91B3FA" />
        <path
            d="M283.608 187.875C273.923 187.622 267.09 185.064 263.039 180.214C259.005 175.385 256.994 169.473 256.994 162.458C256.994 155.448 259.181 149.675 263.578 145.124C267.991 140.556 274.742 138.261 283.885 138.261C293.111 138.26 300.183 140.371 305.057 144.599C309.95 148.854 312.408 154.913 312.408 162.766C312.408 170.619 310.043 176.846 305.338 181.427C300.652 185.99 293.389 188.13 283.608 187.875Z"
            fill="white" />
        <path d="M309.859 205.41H259.273V331.076H309.859V205.41Z" fill="white" />
        <path
            d="M317.031 331.075H239.325C239.178 331.075 239.059 330.956 239.059 330.809V325.593C239.059 325.389 239.224 325.224 239.428 325.224H316.982C317.136 325.224 317.261 325.348 317.261 325.502V330.846C317.261 330.973 317.158 331.075 317.031 331.075Z"
            fill="white" />
        <path
            d="M309.857 211.262H231.96C231.791 211.262 231.654 211.125 231.654 210.956V205.659C231.654 205.522 231.766 205.41 231.903 205.41H309.6C309.742 205.41 309.856 205.525 309.856 205.667V211.262H309.857Z"
            fill="white" />
        <path
            d="M151.426 276.186C151.275 276.473 141.752 283.48 141.752 283.48C141.752 283.48 143.855 298.525 152.395 304.466C161.784 310.998 175.043 299.086 175.043 299.086C175.043 299.086 185.595 301.595 191.207 279.629C192.495 274.589 185.063 274.163 176.094 275.091C164.527 276.288 151.426 276.186 151.426 276.186Z"
            fill="url(#paint4_linear_1450_491)" />
        <path
            d="M133.625 327.516C137.351 324.955 141.47 323.023 145.836 321.835C147.476 321.389 156.332 323.962 161.807 323.837C169.322 323.664 176.971 320.244 183.165 321.788C189.319 323.321 194.355 325.324 197.262 327.392C205.966 333.582 211.076 345.125 214.191 356.559C208.294 362.612 200.873 365.302 200.873 365.302L199.502 420.879L166.639 437.693L129.129 418.861L130.473 364.55C130.473 364.55 118.562 359.003 117.688 356.985C116.814 354.967 123.117 334.741 133.625 327.516Z"
            fill="#455A64" />
        <path
            d="M118.244 356.742C118.244 356.742 102.283 400.994 138.681 419.181C146.239 418.177 143.332 405.626 143.332 405.626C143.332 405.626 127.517 402.126 132.267 365.212C127.894 361.614 118.244 356.742 118.244 356.742Z"
            fill="url(#paint5_linear_1450_491)" />
        <path
            d="M213.424 356.742C213.424 356.742 224.407 402.935 192.988 419.181C185.43 418.177 188.337 405.626 188.337 405.626C188.337 405.626 201.083 399.349 199.402 365.212C203.775 361.614 213.424 356.742 213.424 356.742Z"
            fill="url(#paint6_linear_1450_491)" />
        <path
            d="M199.552 422.289H129.911C129.245 422.289 128.699 421.744 128.699 421.077V374.833C128.699 374.167 129.245 373.621 129.911 373.621H199.552C200.219 373.621 200.764 374.167 200.764 374.833V421.077C200.764 421.744 200.219 422.289 199.552 422.289Z"
            fill="url(#paint7_linear_1450_491)" />
        <path
            d="M232.372 436.717C224.124 434.824 205.063 435.842 205.063 435.842L204.288 437.941L203.004 448.377C203.004 448.377 221.157 451.649 230.104 451.641C231.017 451.64 231.852 451.503 232.615 451.266C232.888 451.021 233.154 450.767 233.407 450.492C237.203 446.346 236.106 440.255 232.372 436.717Z"
            fill="url(#paint8_linear_1450_491)" />
        <path
            d="M199.585 435.254L202.813 435.392C204.547 435.466 206.181 436.311 207.347 437.736C208.513 439.162 209.113 441.048 209.011 442.969C208.93 444.501 208.301 445.934 207.264 446.95C206.228 447.967 204.868 448.483 203.487 448.385L198.549 448.033L199.585 435.254Z"
            fill="url(#paint9_linear_1450_491)" />
        <path
            d="M91.054 435.714C99.3451 434.075 118.374 435.677 118.374 435.677L119.096 437.8L120.12 448.271C120.12 448.271 101.892 450.984 92.9481 450.702C92.0355 450.673 91.204 450.511 90.4478 450.25C90.1811 449.997 89.9208 449.735 89.6758 449.452C85.9843 445.191 87.2322 439.137 91.054 435.714Z"
            fill="url(#paint10_linear_1450_491)" />
        <path
            d="M123.864 435.258L120.634 435.296C118.899 435.317 117.244 436.112 116.043 437.501C114.842 438.89 114.195 440.757 114.249 442.681C114.292 444.214 114.885 445.666 115.896 446.714C116.907 447.762 118.252 448.32 119.635 448.264L124.581 448.064L123.864 435.258Z"
            fill="url(#paint11_linear_1450_491)" />
        <path
            d="M234.678 404.002C230.938 395.393 221.79 393.996 214.004 398.021C213.869 398.199 164.56 423.47 121.076 434.546C122.321 438.537 122.961 442.783 123.101 446.957C123.126 447.887 123.11 448.804 123.056 449.709C156.402 447.996 192.592 436.875 223.69 427.102C233.334 423.992 238.823 413.542 234.678 404.002Z"
            fill="#4F52FF" />
        <path
            d="M199.822 447.611C199.692 442.8 200.627 438.321 202.628 434.175C202.685 433.985 202.754 433.802 202.814 433.615C200.331 432.846 197.123 431.804 192.909 430.374C162.031 419.807 138.475 409.137 115.993 396.854C107.259 392.082 97.3286 395.28 94.5329 405.615C92.0369 414.841 97.5177 422.717 105.836 425.485C130.723 433.766 117.765 431.466 125.893 434.081C147.721 440.832 174.883 446.98 199.874 448.658C199.855 448.309 199.834 447.959 199.822 447.611Z"
            fill="url(#paint12_linear_1450_491)" />
        <path
            d="M145.838 321.835C145.838 321.835 149.159 336.226 165.281 335.927C181.703 335.628 183.167 321.788 183.167 321.788L172.44 319.492L171.543 307.54L155.408 308.735L155.109 320.09L145.838 321.835Z"
            fill="url(#paint13_linear_1450_491)" />
        <path
            d="M157.675 273.675C157.675 273.675 139.183 309.494 161.118 318.184C176.59 324.314 186.291 294.398 183.398 286.295C178.924 273.766 175.978 275.253 175.978 275.253L157.675 273.675Z"
            fill="url(#paint14_linear_1450_491)" />
        <path
            d="M187.847 270.416C196.982 272.927 189.175 292.739 175.421 288.054C161.668 283.368 156.263 283.437 154.12 287.213C151.977 290.99 151.516 304.402 146.866 297.773C141.768 290.505 138.925 275.918 145.176 271.215C150.763 267.012 152.066 260.496 158.767 260.722C167.661 261.022 174.539 257.08 178.553 259.923C183.164 263.188 181.125 268.568 187.847 270.416Z"
            fill="#263238" />
        <path
            d="M153.274 290.294C153.274 290.294 149.33 286.05 148.699 291.165C148.067 296.279 150.094 302.866 152.468 299.255C154.843 295.645 153.274 290.294 153.274 290.294Z"
            fill="url(#paint15_linear_1450_491)" />
        <path
            d="M168.981 386.801C169.363 389.383 167.98 391.726 165.398 392.109C162.816 392.491 160.414 390.707 160.031 388.125C159.649 385.543 160.831 382.979 163.413 382.597C165.995 382.215 168.599 384.219 168.981 386.801Z"
            fill="url(#paint16_linear_1450_491)" />
    </g>
    <defs>
        <linearGradient id="paint0_linear_1450_491" x1="534.817" y1="588.819" x2="172.406" y2="138.728"
            gradientUnits="userSpaceOnUse">
            <stop stop-color="#DAE3FE" />
            <stop offset="1" stop-color="#E9EFFD" />
        </linearGradient>
        <linearGradient id="paint1_linear_1450_491" x1="269.393" y1="289.814" x2="282.798" y2="480.304"
            gradientUnits="userSpaceOnUse">
            <stop stop-color="#09005D" />
            <stop offset="1" stop-color="#1A0F91" />
        </linearGradient>
        <linearGradient id="paint2_linear_1450_491" x1="264.135" y1="-145.222" x2="311.198" y2="523.568"
            gradientUnits="userSpaceOnUse">
            <stop stop-color="#626CA3" />
            <stop offset="1" stop-color="#626CA3" />
        </linearGradient>
        <linearGradient id="paint3_linear_1450_491" x1="150.484" y1="249.262" x2="181.511" y2="249.262"
            gradientUnits="userSpaceOnUse">
            <stop stop-color="#1F2D7C" />
            <stop offset="1" stop-color="#626CA3" />
        </linearGradient>
        <linearGradient id="paint4_linear_1450_491" x1="208.308" y1="224.823" x2="169.266" y2="280.305"
            gradientUnits="userSpaceOnUse">
            <stop stop-color="#4F52FF" />
            <stop offset="1" stop-color="#4042E2" />
        </linearGradient>
        <linearGradient id="paint5_linear_1450_491" x1="110.089" y1="344.844" x2="172.538" y2="495.696"
            gradientUnits="userSpaceOnUse">
            <stop stop-color="#FEBBBA" />
            <stop offset="1" stop-color="#FF928E" />
        </linearGradient>
        <linearGradient id="paint6_linear_1450_491" x1="220.796" y1="344.52" x2="158.347" y2="495.371"
            gradientUnits="userSpaceOnUse">
            <stop stop-color="#FEBBBA" />
            <stop offset="1" stop-color="#FF928E" />
        </linearGradient>
        <linearGradient id="paint7_linear_1450_491" x1="165.562" y1="364.312" x2="162.313" y2="495.896"
            gradientUnits="userSpaceOnUse">
            <stop stop-color="#09005D" />
            <stop offset="1" stop-color="#1A0F91" />
        </linearGradient>
        <linearGradient id="paint8_linear_1450_491" x1="203.042" y1="443.447" x2="237.168" y2="443.71"
            gradientUnits="userSpaceOnUse">
            <stop stop-color="#09005D" />
            <stop offset="1" stop-color="#1A0F91" />
        </linearGradient>
        <linearGradient id="paint9_linear_1450_491" x1="225.565" y1="381.916" x2="189.543" y2="479.488"
            gradientUnits="userSpaceOnUse">
            <stop stop-color="#FEBBBA" />
            <stop offset="1" stop-color="#FF928E" />
        </linearGradient>
        <linearGradient id="paint10_linear_1450_491" x1="120.219" y1="443.28" x2="86.0856" y2="442.597"
            gradientUnits="userSpaceOnUse">
            <stop stop-color="#09005D" />
            <stop offset="1" stop-color="#1A0F91" />
        </linearGradient>
        <linearGradient id="paint11_linear_1450_491" x1="153.395" y1="352.514" x2="117.353" y2="450.137"
            gradientUnits="userSpaceOnUse">
            <stop stop-color="#FEBBBA" />
            <stop offset="1" stop-color="#FF928E" />
        </linearGradient>
        <linearGradient id="paint12_linear_1450_491" x1="156.15" y1="443.127" x2="131.606" y2="380.542"
            gradientUnits="userSpaceOnUse">
            <stop stop-color="#4F52FF" />
            <stop offset="1" stop-color="#4042E2" />
        </linearGradient>
        <linearGradient id="paint13_linear_1450_491" x1="164.91" y1="357.3" x2="164.079" y2="285.004"
            gradientUnits="userSpaceOnUse">
            <stop stop-color="#FEBBBA" />
            <stop offset="1" stop-color="#FF928E" />
        </linearGradient>
        <linearGradient id="paint14_linear_1450_491" x1="162.503" y1="317.169" x2="175.173" y2="255.493"
            gradientUnits="userSpaceOnUse">
            <stop stop-color="#FEBBBA" />
            <stop offset="1" stop-color="#FF928E" />
        </linearGradient>
        <linearGradient id="paint15_linear_1450_491" x1="154.105" y1="325.361" x2="145.023" y2="227.114"
            gradientUnits="userSpaceOnUse">
            <stop stop-color="#FEBBBA" />
            <stop offset="1" stop-color="#FF928E" />
        </linearGradient>
        <linearGradient id="paint16_linear_1450_491" x1="165.195" y1="354.281" x2="163.096" y2="454.711"
            gradientUnits="userSpaceOnUse">
            <stop stop-color="#53D8FF" />
            <stop offset="1" stop-color="#3840F7" />
        </linearGradient>
        <clipPath id="clip0_1450_491">
            <rect width="500" height="500" fill="white" />
        </clipPath>
    </defs>
</svg>